<svg xmlns="http://www.w3.org/2000/svg" xmlns:xlink="http://www.w3.org/1999/xlink" style="isolation:isolate" viewBox="150 63 52.116 33" width="52.116" height="33"><path d=" M 196.897 70.063 C 194.799 68.23 192.327 67.143 189.572 66.746 C 186.128 66.248 182.889 66.874 179.877 68.628 C 179.667 68.75 179.673 68.748 179.573 68.519 C 178.225 65.427 175.891 63.605 172.555 63.07 C 172.442 63.052 172.315 63.081 172.214 63 C 172.161 63 172.107 63 172.054 63 C 171.973 63.058 171.893 63.048 171.813 63 C 171.532 63 171.252 63 170.971 63 C 170.891 63.046 170.811 63.06 170.73 63 C 170.677 63 170.623 63 170.57 63 C 170.552 63.017 170.53 63.019 170.508 63.02 C 170.256 63.097 169.992 63.1 169.735 63.149 C 166.077 63.856 163.259 66.756 162.682 70.418 C 162.647 70.642 162.608 70.869 162.607 71.094 C 162.607 71.301 162.513 71.312 162.35 71.296 C 161.664 71.231 160.977 71.232 160.29 71.295 C 158.049 71.499 156.038 72.295 154.281 73.698 C 152.07 75.463 150.704 77.749 150.175 80.53 C 150.116 80.838 150.089 81.151 150.045 81.462 C 150.038 81.511 150.06 81.572 150 81.605 C 150 81.685 150 81.766 150 81.846 C 150.051 81.926 150.051 82.006 150 82.086 C 150 82.394 150 82.701 150 83.009 C 150.051 83.089 150.051 83.169 150 83.249 C 150 83.329 150 83.41 150 83.49 C 150.015 83.507 150.02 83.526 150.02 83.546 C 150.092 83.754 150.08 83.976 150.112 84.19 C 150.467 86.538 151.453 88.582 153.084 90.303 C 154.896 92.217 157.121 93.362 159.729 93.741 C 161.171 93.95 162.605 93.88 164.021 93.525 C 164.178 93.485 164.288 93.506 164.418 93.608 C 166.147 94.955 168.106 95.73 170.285 95.955 C 170.341 95.961 170.408 95.937 170.45 96 C 170.517 96 170.583 96 170.65 96 C 170.73 95.942 170.811 95.952 170.891 96 C 171.212 96 171.532 96 171.853 96 C 171.92 95.954 171.987 95.951 172.054 96 C 172.134 96 172.214 96 172.294 96 C 172.315 95.983 172.337 95.979 172.36 95.979 C 172.566 95.916 172.784 95.924 172.995 95.893 C 175.121 95.585 177.009 94.742 178.659 93.369 C 178.767 93.28 178.832 93.275 178.948 93.355 C 181.109 94.86 183.505 95.719 186.125 95.956 C 186.18 95.961 186.248 95.933 186.288 96 C 186.382 96 186.475 96 186.569 96 C 186.662 95.942 186.756 95.947 186.849 96 C 187.21 96 187.571 96 187.932 96 C 188.012 95.949 188.092 95.947 188.173 96 C 188.266 96 188.36 96 188.453 96 C 188.464 95.991 188.475 95.986 188.487 95.983 C 188.61 95.924 188.747 95.944 188.875 95.931 C 192.167 95.584 195.037 94.292 197.454 92.037 C 199.921 89.735 201.478 86.909 201.943 83.567 C 202.694 78.18 200.998 73.647 196.897 70.063 Z  M 173.825 85.276 C 173.825 87.794 173.823 90.313 173.829 92.831 C 173.829 93.016 173.793 93.08 173.592 93.078 C 172.409 93.068 171.227 93.07 170.045 93.076 C 169.887 93.077 169.845 93.034 169.845 92.877 C 169.849 87.807 169.849 82.737 169.844 77.667 C 169.844 77.501 169.899 77.471 170.049 77.472 C 171.231 77.477 172.414 77.479 173.596 77.471 C 173.778 77.469 173.829 77.517 173.829 77.701 C 173.823 80.226 173.824 82.751 173.825 85.276 Z  M 171.866 76.192 C 170.491 76.194 169.376 75.085 169.374 73.714 C 169.371 72.35 170.463 71.261 171.834 71.262 C 173.195 71.263 174.303 72.373 174.306 73.739 C 174.308 75.093 173.216 76.19 171.866 76.192 Z  M 197.682 88.757 C 196.083 90.825 194.031 92.234 191.532 92.993 C 190.218 93.392 188.87 93.552 187.461 93.556 C 185.434 93.539 183.431 93.21 181.553 92.303 C 179.191 91.163 177.439 89.39 176.227 87.079 C 175.298 85.306 174.893 83.403 174.851 81.409 C 174.809 79.435 175.113 77.525 176.014 75.758 C 177.733 72.389 180.426 70.174 184.11 69.275 C 186.954 68.582 189.787 68.72 192.539 69.777 C 194.613 70.575 196.331 71.861 197.676 73.639 C 197.774 73.769 197.777 73.83 197.639 73.932 C 197.113 74.321 196.594 74.721 196.081 75.127 C 195.957 75.225 195.907 75.196 195.82 75.084 C 194.414 73.263 192.622 71.983 190.377 71.453 C 186.328 70.498 182.766 71.411 179.876 74.476 C 178.444 75.994 177.688 77.858 177.461 79.931 C 177.258 81.782 177.405 83.602 178.173 85.31 C 179.619 88.521 182.093 90.486 185.559 91.142 C 187.329 91.476 189.096 91.414 190.829 90.869 C 192.282 90.412 193.542 89.629 194.652 88.593 C 195.072 88.2 195.464 87.781 195.823 87.331 C 195.907 87.226 195.964 87.211 196.076 87.298 C 196.598 87.703 197.123 88.105 197.658 88.495 C 197.793 88.594 197.763 88.652 197.682 88.757 Z " fill-rule="evenodd" fill="rgb(90,130,176)"/></svg>