<?xml version="1.0" standalone="no"?>
<!DOCTYPE svg PUBLIC "-//W3C//DTD SVG 20010904//EN"
 "http://www.w3.org/TR/2001/REC-SVG-20010904/DTD/svg10.dtd">
<svg version="1.0" xmlns="http://www.w3.org/2000/svg"
 width="706.000000pt" height="1080.000000pt" viewBox="0 0 706.000000 1080.000000"
 preserveAspectRatio="xMidYMid meet">

<g transform="translate(0.000000,1080.000000) scale(0.100000,-0.100000)"
fill="#fff" stroke="none">
<path d="M0 8695 l0 -1975 1075 0 1075 0 0 -1640 0 -1640 1075 0 1075 0 2
-1628 3 -1627 1378 -3 1377 -2 0 1980 0 1980 -1075 0 -1075 0 0 1625 0 1625
-1075 0 -1075 0 0 1640 0 1640 -1380 0 -1380 0 0 -1975z m2580 245 l0 -1550
-215 0 -215 0 0 -240 0 -240 -985 0 -985 0 0 1790 0 1790 1200 0 1200 0 0
-1550z m0 -1880 l0 -150 -125 0 -125 0 0 150 0 150 125 0 125 0 0 -150z m2150
-1385 l0 -1535 -212 -2 -213 -3 -3 -257 -2 -258 -985 0 -985 0 0 1550 0 1550
215 0 215 0 0 245 0 245 985 0 985 0 0 -1535z m0 -1885 l0 -170 -125 0 -125 0
0 170 0 170 125 0 125 0 0 -170z m2150 -1625 l0 -1795 -1200 0 -1200 0 0 1535
0 1535 215 0 215 0 0 260 0 260 985 0 985 0 0 -1795z"/>
<path d="M815 9938 c-3 -7 -4 -569 -3 -1248 l3 -1235 695 0 695 0 0 130 0 130
-552 3 -553 2 0 1115 0 1115 -140 0 c-103 0 -142 -3 -145 -12z"/>
<path d="M2740 5421 l0 -1251 483 0 c512 0 603 6 752 51 245 73 417 246 471
474 22 93 22 270 1 352 -55 211 -207 346 -456 406 -50 12 -89 26 -88 31 2 5
28 15 57 23 139 35 258 113 325 213 63 93 88 173 93 300 7 194 -35 319 -147
431 -80 80 -173 128 -316 164 -153 39 -244 45 -727 52 l-448 6 0 -1252z m1035
960 c112 -31 163 -57 217 -113 69 -70 92 -148 85 -282 -7 -134 -26 -186 -96
-257 -41 -41 -72 -63 -116 -79 -113 -42 -191 -49 -522 -50 l-313 0 0 406 0
406 333 -4 c305 -4 339 -7 412 -27z m15 -1055 c165 -40 266 -109 320 -220 62
-127 60 -309 -5 -442 -42 -87 -93 -134 -189 -180 -122 -57 -184 -64 -556 -64
l-330 0 0 466 0 466 343 -4 c284 -4 355 -7 417 -22z"/>
<path d="M4750 2085 l0 -1245 414 0 c543 0 686 18 921 116 242 102 451 312
550 554 122 301 137 754 34 1075 -110 345 -366 591 -718 690 -171 48 -263 55
-750 55 l-451 0 0 -1245z m900 985 c412 -47 661 -266 751 -660 25 -110 36
-361 21 -490 -43 -356 -189 -586 -457 -715 -191 -93 -323 -115 -687 -115
l-238 0 0 995 0 995 263 0 c144 0 300 -5 347 -10z"/>
</g>
</svg>
