<?xml version="1.0" encoding="UTF-8"?>
<!DOCTYPE svg PUBLIC "-//W3C//DTD SVG 1.1//EN" "http://www.w3.org/Graphics/SVG/1.1/DTD/svg11.dtd">
<svg xmlns="http://www.w3.org/2000/svg" version="1.1" width="1080px" height="1080px" style="shape-rendering:geometricPrecision; text-rendering:geometricPrecision; image-rendering:optimizeQuality; fill-rule:evenodd; clip-rule:evenodd" xmlns:xlink="http://www.w3.org/1999/xlink">
<g><path style="opacity:1" fill="#c83928" d="M 276.5,198.5 C 275.316,199.688 275.316,200.855 276.5,202C 275.282,203.416 273.949,203.249 272.5,201.5C 269.275,202.184 266.275,203.351 263.5,205C 264.328,205.915 265.328,206.581 266.5,207C 264.415,207.529 262.582,207.029 261,205.5C 259.234,206.233 257.401,206.567 255.5,206.5C 262.269,203.462 269.269,200.796 276.5,198.5 Z"/></g>
<g><path style="opacity:1" fill="#cd0501" d="M 831.5,208.5 C 833.229,210.727 835.562,211.727 838.5,211.5C 844.534,212.694 850.201,214.694 855.5,217.5C 856.552,219.256 858.219,219.923 860.5,219.5C 868.44,221.401 876.107,224.068 883.5,227.5C 883.611,228.117 883.944,228.617 884.5,229C 877.184,231.334 870.184,234.167 863.5,237.5C 845.043,243.068 827.043,249.734 809.5,257.5C 798.093,261.033 786.76,264.866 775.5,269C 772.352,270.424 769.352,271.924 766.5,273.5C 744.662,280.431 723.328,288.431 702.5,297.5C 699.894,298.136 697.394,298.136 695,297.5C 694.536,298.094 694.369,298.761 694.5,299.5C 690.65,300.928 686.983,302.594 683.5,304.5C 674.333,306.759 665.666,310.092 657.5,314.5C 652.331,314.999 647.664,316.666 643.5,319.5C 621.727,326.533 600.393,334.533 579.5,343.5C 566.965,347.234 554.631,351.568 542.5,356.5C 541.833,356.5 541.5,356.833 541.5,357.5C 535.923,355.546 530.256,353.879 524.5,352.5C 522.208,350.733 519.542,349.733 516.5,349.5C 509.876,346.066 502.876,343.4 495.5,341.5C 483.851,336.393 471.851,332.06 459.5,328.5C 446.534,322.731 433.201,317.731 419.5,313.5C 417.208,311.733 414.542,310.733 411.5,310.5C 399.281,304.869 386.615,300.202 373.5,296.5C 367.615,293.202 361.282,290.869 354.5,289.5C 348.604,286.199 342.271,283.865 335.5,282.5C 329.615,279.202 323.282,276.869 316.5,275.5C 308.995,271.424 300.995,268.424 292.5,266.5C 278.551,260.369 264.218,255.035 249.5,250.5C 243.615,247.202 237.282,244.869 230.5,243.5C 219.394,238.709 208.06,234.209 196.5,230C 197.381,229.292 198.047,228.458 198.5,227.5C 208.342,223.441 218.342,219.775 228.5,216.5C 231.716,216.655 234.383,215.655 236.5,213.5C 238.214,212.262 240.214,211.595 242.5,211.5C 246.553,210.65 250.553,209.484 254.5,208C 255.056,207.617 255.389,207.117 255.5,206.5C 257.401,206.567 259.234,206.233 261,205.5C 262.582,207.029 264.415,207.529 266.5,207C 265.328,206.581 264.328,205.915 263.5,205C 266.275,203.351 269.275,202.184 272.5,201.5C 273.949,203.249 275.282,203.416 276.5,202C 275.316,200.855 275.316,199.688 276.5,198.5C 277.449,197.848 278.615,197.514 280,197.5C 282.221,197.393 284.054,198.06 285.5,199.5C 286.78,200.931 288.447,201.598 290.5,201.5C 292.891,204.917 296.225,206.25 300.5,205.5C 313.628,209.765 326.628,214.432 339.5,219.5C 340.509,222.72 342.509,223.386 345.5,221.5C 352.673,223.928 359.673,226.595 366.5,229.5C 366.94,232.263 368.273,233.263 370.5,232.5C 373.429,233.756 376.262,235.09 379,236.5C 379.671,235.748 380.504,235.414 381.5,235.5C 434.454,254.389 487.287,273.722 540,293.5C 543.876,291.264 548.042,289.93 552.5,289.5C 555.875,289.233 559.042,288.233 562,286.5C 562.873,286.735 563.707,287.069 564.5,287.5C 564.677,286.053 565.677,284.719 567.5,283.5C 567.833,283.5 568.167,283.5 568.5,283.5C 574.059,282.652 579.059,280.652 583.5,277.5C 586.716,277.655 589.383,276.655 591.5,274.5C 594.716,274.655 597.383,273.655 599.5,271.5C 656.292,249.789 713.292,228.456 770.5,207.5C 772.698,207.88 774.365,207.213 775.5,205.5C 780.173,203.829 784.839,202.163 789.5,200.5C 792.716,200.655 795.383,199.655 797.5,197.5C 798.601,196.402 799.934,196.235 801.5,197C 811.627,200.76 821.627,204.594 831.5,208.5 Z"/></g>
<g><path style="opacity:0.82" fill="#bd5344" d="M 797.5,197.5 C 795.383,199.655 792.716,200.655 789.5,200.5C 791.936,199.129 794.603,198.129 797.5,197.5 Z"/></g>
<g><path style="opacity:0.447" fill="#cc807e" d="M 285.5,199.5 C 287.553,199.402 289.22,200.069 290.5,201.5C 288.447,201.598 286.78,200.931 285.5,199.5 Z"/></g>
<g><path style="opacity:1" fill="#c63f2e" d="M 290.5,201.5 C 294.137,202.263 297.47,203.597 300.5,205.5C 296.225,206.25 292.891,204.917 290.5,201.5 Z"/></g>
<g><path style="opacity:0.827" fill="#c87568" d="M 775.5,205.5 C 774.365,207.213 772.698,207.88 770.5,207.5C 771.93,206.463 773.597,205.796 775.5,205.5 Z"/></g>
<g><path style="opacity:0.765" fill="#c8584a" d="M 255.5,206.5 C 255.389,207.117 255.056,207.617 254.5,208C 250.553,209.484 246.553,210.65 242.5,211.5C 246.444,209.036 250.777,207.37 255.5,206.5 Z"/></g>
<g><path style="opacity:1" fill="#cb5c4e" d="M 831.5,208.5 C 834.241,208.707 836.574,209.707 838.5,211.5C 835.562,211.727 833.229,210.727 831.5,208.5 Z"/></g>
<g><path style="opacity:0.796" fill="#c85e4f" d="M 236.5,213.5 C 234.383,215.655 231.716,216.655 228.5,216.5C 230.89,214.98 233.557,213.98 236.5,213.5 Z"/></g>
<g><path style="opacity:1" fill="#c75646" d="M 855.5,217.5 C 857.553,217.402 859.22,218.069 860.5,219.5C 858.219,219.923 856.552,219.256 855.5,217.5 Z"/></g>
<g><path style="opacity:1" fill="#cd5f4d" d="M 339.5,219.5 C 341.698,219.875 343.698,220.542 345.5,221.5C 342.509,223.386 340.509,222.72 339.5,219.5 Z"/></g>
<g><path style="opacity:1" fill="#cc4a36" d="M 366.5,229.5 C 371.895,230.738 376.895,232.738 381.5,235.5C 380.504,235.414 379.671,235.748 379,236.5C 376.262,235.09 373.429,233.756 370.5,232.5C 368.273,233.263 366.94,232.263 366.5,229.5 Z"/></g>
<g><path style="opacity:1" fill="#c40000" d="M 193.5,231.5 C 205.827,235.498 218.16,239.498 230.5,243.5C 236.26,247.197 242.593,249.531 249.5,250.5C 253.956,252.892 258.623,255.058 263.5,257C 273.165,260.277 282.832,263.444 292.5,266.5C 297.187,269.172 302.187,271.338 307.5,273C 308.815,274.395 308.481,275.395 306.5,276C 307.416,276.374 308.25,276.874 309,277.5C 311.301,276.133 313.801,275.466 316.5,275.5C 322.468,278.584 328.801,280.918 335.5,282.5C 341.385,285.798 347.718,288.131 354.5,289.5C 360.242,293.194 366.575,295.527 373.5,296.5C 384.279,301.267 395.279,305.767 406.5,310C 408.134,310.494 409.801,310.66 411.5,310.5C 413.792,312.267 416.458,313.267 419.5,313.5C 432.328,319.569 445.662,324.569 459.5,328.5C 471.027,333.921 483.027,338.254 495.5,341.5C 501.985,345.331 508.985,347.998 516.5,349.5C 518.792,351.267 521.458,352.267 524.5,352.5C 528.928,354.791 533.595,356.791 538.5,358.5C 539.5,395.827 539.833,433.161 539.5,470.5C 536.103,468.733 532.436,467.733 528.5,467.5C 525.215,467.072 522.215,466.072 519.5,464.5C 518.365,462.787 516.698,462.12 514.5,462.5C 509.688,461.23 505.022,459.563 500.5,457.5C 498.16,456.161 496.827,454.494 496.5,452.5C 497.729,451.719 499.062,451.219 500.5,451C 499.5,450.5 498.5,450 497.5,449.5C 496.28,450.711 495.113,450.711 494,449.5C 493.309,451.891 492.309,451.891 491,449.5C 491.077,450.738 490.911,451.738 490.5,452.5C 488.668,451.752 487.001,450.752 485.5,449.5C 484.402,450.615 483.235,450.615 482,449.5C 480.48,448.303 479.313,446.803 478.5,445C 476.892,444.342 475.725,444.842 475,446.5C 472.313,445.287 469.48,444.62 466.5,444.5C 464.035,444.233 461.701,443.566 459.5,442.5C 457.824,440.166 455.491,439.166 452.5,439.5C 433.032,432.899 413.699,425.899 394.5,418.5C 393.365,416.787 391.698,416.12 389.5,416.5C 387.673,415.068 386.006,413.401 384.5,411.5C 382.929,412.309 381.262,412.643 379.5,412.5C 377.421,412.029 375.421,411.363 373.5,410.5C 372.365,408.787 370.698,408.12 368.5,408.5C 364.376,405.678 359.709,404.011 354.5,403.5C 351.2,401.358 347.533,400.025 343.5,399.5C 333.269,394.598 322.602,390.598 311.5,387.5C 301.129,382.929 290.463,378.929 279.5,375.5C 279.5,489.167 279.5,602.833 279.5,716.5C 277.565,715.85 275.565,715.517 273.5,715.5C 271.421,715.029 269.421,714.363 267.5,713.5C 266.365,711.787 264.698,711.12 262.5,711.5C 256.064,709.449 249.731,707.115 243.5,704.5C 242.365,702.787 240.698,702.12 238.5,702.5C 223.787,697.916 209.454,692.583 195.5,686.5C 194.868,679.733 194.201,673.067 193.5,666.5C 193.5,521.5 193.5,376.5 193.5,231.5 Z"/></g>
<g><path style="opacity:1" fill="#7f0e09" d="M 198.5,227.5 C 198.047,228.458 197.381,229.292 196.5,230C 208.06,234.209 219.394,238.709 230.5,243.5C 218.16,239.498 205.827,235.498 193.5,231.5C 192.45,231.095 192.45,230.429 193.5,229.5C 195.022,228.438 196.688,227.771 198.5,227.5 Z"/></g>
<g><path style="opacity:1" fill="#b90100" d="M 886.5,655.5 C 886.757,664.276 886.757,672.609 886.5,680.5C 883.174,680.967 882.841,682.134 885.5,684C 881.504,685.827 877.504,686.827 873.5,687C 874.252,687.671 874.586,688.504 874.5,689.5C 865.131,693.737 855.465,697.404 845.5,700.5C 843.409,700.682 841.409,700.348 839.5,699.5C 840.027,701.086 839.361,702.42 837.5,703.5C 833.042,705.728 828.375,707.395 823.5,708.5C 821.856,708.714 820.356,708.38 819,707.5C 818.52,709.133 817.687,710.466 816.5,711.5C 811.978,713.563 807.312,715.23 802.5,716.5C 801.833,716.5 801.5,716.167 801.5,715.5C 801.5,601.833 801.5,488.167 801.5,374.5C 799.901,374.232 798.568,374.566 797.5,375.5C 792.982,376.097 788.982,377.764 785.5,380.5C 777.126,382.733 769.126,385.733 761.5,389.5C 751.822,392.559 742.155,395.726 732.5,399C 725.762,401.958 719.096,404.792 712.5,407.5C 711.508,407.328 710.842,407.662 710.5,408.5C 704.342,411.069 698.008,413.402 691.5,415.5C 689.447,415.402 687.78,416.069 686.5,417.5C 684.703,418.73 682.703,419.396 680.5,419.5C 678.447,419.402 676.78,420.069 675.5,421.5C 656.873,429.305 637.873,436.305 618.5,442.5C 614.225,441.75 610.891,443.083 608.5,446.5C 603.475,449.068 598.141,451.068 592.5,452.5C 589.482,452.335 586.482,452.502 583.5,453C 585.619,453.342 585.953,454.175 584.5,455.5C 572.409,460.534 560.075,465.201 547.5,469.5C 545.533,469.739 543.699,469.406 542,468.5C 541.768,469.737 541.268,470.737 540.5,471.5C 540.173,433.427 540.507,395.427 541.5,357.5C 541.5,356.833 541.833,356.5 542.5,356.5C 542.735,357.097 543.235,357.43 544,357.5C 556.09,353.195 567.923,348.528 579.5,343.5C 601.284,336.464 622.618,328.464 643.5,319.5C 648.638,318.921 653.305,317.254 657.5,314.5C 666.622,312.13 675.289,308.796 683.5,304.5C 688.342,303.621 693.008,302.121 697.5,300C 696.552,299.517 695.552,299.351 694.5,299.5C 694.369,298.761 694.536,298.094 695,297.5C 697.394,298.136 699.894,298.136 702.5,297.5C 724.284,290.464 745.618,282.464 766.5,273.5C 777.903,269.976 789.237,266.143 800.5,262C 803.648,260.576 806.648,259.076 809.5,257.5C 827.96,251.795 845.96,245.128 863.5,237.5C 866.944,236.409 870.444,235.409 874,234.5C 875.573,234.845 876.74,235.511 877.5,236.5C 878.167,236.167 878.833,235.833 879.5,235.5C 878.5,234.667 877.5,233.833 876.5,233C 879.172,232.166 881.839,231.332 884.5,230.5C 885.167,372.333 885.833,513.999 886.5,655.5 Z"/></g>
<g><path style="opacity:1" fill="#8b0905" d="M 883.5,227.5 C 884.496,227.414 885.329,227.748 886,228.5C 886.5,370.833 886.667,513.166 886.5,655.5C 885.833,513.999 885.167,372.333 884.5,230.5C 881.839,231.332 879.172,232.166 876.5,233C 877.5,233.833 878.5,234.667 879.5,235.5C 878.833,235.833 878.167,236.167 877.5,236.5C 876.74,235.511 875.573,234.845 874,234.5C 870.444,235.409 866.944,236.409 863.5,237.5C 870.184,234.167 877.184,231.334 884.5,229C 883.944,228.617 883.611,228.117 883.5,227.5 Z"/></g>
<g><path style="opacity:1" fill="#7b0000" d="M 230.5,243.5 C 237.282,244.869 243.615,247.202 249.5,250.5C 242.593,249.531 236.26,247.197 230.5,243.5 Z"/></g>
<g><path style="opacity:1" fill="#770000" d="M 863.5,237.5 C 845.96,245.128 827.96,251.795 809.5,257.5C 827.043,249.734 845.043,243.068 863.5,237.5 Z"/></g>
<g><path style="opacity:1" fill="#7b0000" d="M 249.5,250.5 C 264.218,255.035 278.551,260.369 292.5,266.5C 282.832,263.444 273.165,260.277 263.5,257C 258.623,255.058 253.956,252.892 249.5,250.5 Z"/></g>
<g><path style="opacity:1" fill="#780001" d="M 809.5,257.5 C 806.648,259.076 803.648,260.576 800.5,262C 789.237,266.143 777.903,269.976 766.5,273.5C 769.352,271.924 772.352,270.424 775.5,269C 786.76,264.866 798.093,261.033 809.5,257.5 Z"/></g>
<g><path style="opacity:0.78" fill="#c75046" d="M 599.5,271.5 C 597.383,273.655 594.716,274.655 591.5,274.5C 593.936,273.129 596.603,272.129 599.5,271.5 Z"/></g>
<g><path style="opacity:1" fill="#9b0002" d="M 292.5,266.5 C 300.995,268.424 308.995,271.424 316.5,275.5C 313.801,275.466 311.301,276.133 309,277.5C 308.25,276.874 307.416,276.374 306.5,276C 308.481,275.395 308.815,274.395 307.5,273C 302.187,271.338 297.187,269.172 292.5,266.5 Z"/></g>
<g><path style="opacity:1" fill="#750000" d="M 316.5,275.5 C 323.282,276.869 329.615,279.202 335.5,282.5C 328.801,280.918 322.468,278.584 316.5,275.5 Z"/></g>
<g><path style="opacity:0.843" fill="#c35b4d" d="M 591.5,274.5 C 589.383,276.655 586.716,277.655 583.5,277.5C 585.936,276.129 588.603,275.129 591.5,274.5 Z"/></g>
<g><path style="opacity:0.835" fill="#c34534" d="M 583.5,277.5 C 579.059,280.652 574.059,282.652 568.5,283.5C 573.117,280.734 578.117,278.734 583.5,277.5 Z"/></g>
<g><path style="opacity:1" fill="#760000" d="M 766.5,273.5 C 745.618,282.464 724.284,290.464 702.5,297.5C 723.328,288.431 744.662,280.431 766.5,273.5 Z"/></g>
<g><path style="opacity:1" fill="#7c0000" d="M 335.5,282.5 C 342.271,283.865 348.604,286.199 354.5,289.5C 347.718,288.131 341.385,285.798 335.5,282.5 Z"/></g>
<g><path style="opacity:1" fill="#c54539" d="M 567.5,283.5 C 565.677,284.719 564.677,286.053 564.5,287.5C 563.707,287.069 562.873,286.735 562,286.5C 559.042,288.233 555.875,289.233 552.5,289.5C 557.104,286.705 562.104,284.705 567.5,283.5 Z"/></g>
<g><path style="opacity:1" fill="#7d0000" d="M 354.5,289.5 C 361.282,290.869 367.615,293.202 373.5,296.5C 366.575,295.527 360.242,293.194 354.5,289.5 Z"/></g>
<g><path style="opacity:1" fill="#7d0000" d="M 373.5,296.5 C 386.615,300.202 399.281,304.869 411.5,310.5C 409.801,310.66 408.134,310.494 406.5,310C 395.279,305.767 384.279,301.267 373.5,296.5 Z"/></g>
<g><path style="opacity:1" fill="#750000" d="M 694.5,299.5 C 695.552,299.351 696.552,299.517 697.5,300C 693.008,302.121 688.342,303.621 683.5,304.5C 686.983,302.594 690.65,300.928 694.5,299.5 Z"/></g>
<g><path style="opacity:1" fill="#760000" d="M 683.5,304.5 C 675.289,308.796 666.622,312.13 657.5,314.5C 665.666,310.092 674.333,306.759 683.5,304.5 Z"/></g>
<g><path style="opacity:1" fill="#730000" d="M 411.5,310.5 C 414.542,310.733 417.208,311.733 419.5,313.5C 416.458,313.267 413.792,312.267 411.5,310.5 Z"/></g>
<g><path style="opacity:1" fill="#7c0000" d="M 657.5,314.5 C 653.305,317.254 648.638,318.921 643.5,319.5C 647.664,316.666 652.331,314.999 657.5,314.5 Z"/></g>
<g><path style="opacity:1" fill="#7b0000" d="M 419.5,313.5 C 433.201,317.731 446.534,322.731 459.5,328.5C 445.662,324.569 432.328,319.569 419.5,313.5 Z"/></g>
<g><path style="opacity:1" fill="#7b0000" d="M 459.5,328.5 C 471.851,332.06 483.851,336.393 495.5,341.5C 483.027,338.254 471.027,333.921 459.5,328.5 Z"/></g>
<g><path style="opacity:1" fill="#780000" d="M 643.5,319.5 C 622.618,328.464 601.284,336.464 579.5,343.5C 600.393,334.533 621.727,326.533 643.5,319.5 Z"/></g>
<g><path style="opacity:1" fill="#790000" d="M 495.5,341.5 C 502.876,343.4 509.876,346.066 516.5,349.5C 508.985,347.998 501.985,345.331 495.5,341.5 Z"/></g>
<g><path style="opacity:1" fill="#760000" d="M 579.5,343.5 C 567.923,348.528 556.09,353.195 544,357.5C 543.235,357.43 542.735,357.097 542.5,356.5C 554.631,351.568 566.965,347.234 579.5,343.5 Z"/></g>
<g><path style="opacity:1" fill="#700000" d="M 516.5,349.5 C 519.542,349.733 522.208,350.733 524.5,352.5C 521.458,352.267 518.792,351.267 516.5,349.5 Z"/></g>
<g><path style="opacity:1" fill="#670001" d="M 524.5,352.5 C 530.256,353.879 535.923,355.546 541.5,357.5C 540.507,395.427 540.173,433.427 540.5,471.5C 540.167,471.5 539.833,471.5 539.5,471.5C 539.5,471.167 539.5,470.833 539.5,470.5C 539.833,433.161 539.5,395.827 538.5,358.5C 533.595,356.791 528.928,354.791 524.5,352.5 Z"/></g>
<g><path style="opacity:1" fill="#c40000" d="M 796.5,377.5 C 798.165,421.991 799.165,466.657 799.5,511.5C 799.833,580.002 799.499,648.335 798.5,716.5C 792.608,714.871 786.942,712.871 781.5,710.5C 779.824,708.166 777.491,707.166 774.5,707.5C 772.035,707.233 769.701,706.566 767.5,705.5C 766.365,703.787 764.698,703.12 762.5,703.5C 756.943,702.053 751.61,700.053 746.5,697.5C 742.356,693.768 737.356,691.768 731.5,691.5C 725.468,690.269 719.801,688.269 714.5,685.5C 714.832,653.662 714.498,621.996 713.5,590.5C 724.607,585.794 735.94,581.461 747.5,577.5C 748.167,562.337 748.5,547.004 748.5,531.5C 748.499,515.818 747.833,500.485 746.5,485.5C 746.167,485.5 745.833,485.5 745.5,485.5C 740.157,483.161 734.823,480.828 729.5,478.5C 727.898,476.926 725.898,476.259 723.5,476.5C 720.603,475.871 717.936,474.871 715.5,473.5C 714.512,451.909 714.178,430.242 714.5,408.5C 730.247,402.362 745.913,396.029 761.5,389.5C 769.995,387.576 777.995,384.576 785.5,380.5C 789.223,379.703 792.89,378.703 796.5,377.5 Z"/></g>
<g><path style="opacity:1" fill="#b90000" d="M 311.5,387.5 C 312.091,388.151 312.757,388.818 313.5,389.5C 320.687,391.712 327.687,394.379 334.5,397.5C 337.438,398.489 340.438,399.156 343.5,399.5C 346.689,401.89 350.356,403.223 354.5,403.5C 357.864,405.263 361.364,406.93 365,408.5C 365.5,430.164 365.667,451.831 365.5,473.5C 364.329,474.345 362.995,475.011 361.5,475.5C 357.064,476.414 353.064,478.081 349.5,480.5C 344.562,481.646 339.895,483.313 335.5,485.5C 334.391,485.557 333.391,485.89 332.5,486.5C 331.833,501.663 331.5,516.996 331.5,532.5C 331.501,548.182 332.167,563.515 333.5,578.5C 337.5,579.833 341.5,581.167 345.5,582.5C 347.509,584.065 349.843,585.065 352.5,585.5C 356.949,586.892 361.282,588.559 365.5,590.5C 365.5,622.167 365.5,653.833 365.5,685.5C 363.856,685.714 362.356,685.38 361,684.5C 360.079,685.708 359.579,687.042 359.5,688.5C 354.319,690.675 348.986,692.675 343.5,694.5C 340.881,694.768 338.381,694.435 336,693.5C 335.517,694.448 335.351,695.448 335.5,696.5C 331.306,697.174 327.639,698.841 324.5,701.5C 321.098,703.278 317.431,704.611 313.5,705.5C 311.447,705.402 309.78,706.069 308.5,707.5C 307.791,708.404 306.791,708.737 305.5,708.5C 303.447,708.402 301.78,709.069 300.5,710.5C 295.319,712.675 289.986,714.675 284.5,716.5C 283.5,716.5 282.5,716.5 281.5,716.5C 281.707,603.497 281.374,490.497 280.5,377.5C 290.677,381.225 301.01,384.559 311.5,387.5 Z"/></g>
<g><path style="opacity:1" fill="#720000" d="M 785.5,380.5 C 777.995,384.576 769.995,387.576 761.5,389.5C 769.126,385.733 777.126,382.733 785.5,380.5 Z"/></g>
<g><path style="opacity:1" fill="#780001" d="M 311.5,387.5 C 322.602,390.598 333.269,394.598 343.5,399.5C 340.438,399.156 337.438,398.489 334.5,397.5C 327.687,394.379 320.687,391.712 313.5,389.5C 312.757,388.818 312.091,388.151 311.5,387.5 Z"/></g>
<g><path style="opacity:1" fill="#760000" d="M 343.5,399.5 C 347.533,400.025 351.2,401.358 354.5,403.5C 350.356,403.223 346.689,401.89 343.5,399.5 Z"/></g>
<g><path style="opacity:1" fill="#760001" d="M 761.5,389.5 C 745.913,396.029 730.247,402.362 714.5,408.5C 714.167,408.5 713.833,408.5 713.5,408.5C 713.5,407.833 713.167,407.5 712.5,407.5C 719.096,404.792 725.762,401.958 732.5,399C 742.155,395.726 751.822,392.559 761.5,389.5 Z"/></g>
<g><path style="opacity:1" fill="#c16b5e" d="M 368.5,408.5 C 370.698,408.12 372.365,408.787 373.5,410.5C 371.597,410.204 369.93,409.537 368.5,408.5 Z"/></g>
<g><path style="opacity:1" fill="#c54433" d="M 389.5,416.5 C 385.873,415.679 382.54,414.346 379.5,412.5C 381.262,412.643 382.929,412.309 384.5,411.5C 386.006,413.401 387.673,415.068 389.5,416.5 Z"/></g>
<g><path style="opacity:1" fill="#961918" d="M 354.5,403.5 C 359.709,404.011 364.376,405.678 368.5,408.5C 367.508,408.328 366.842,408.662 366.5,409.5C 366.5,430.833 366.5,452.167 366.5,473.5C 366.167,473.5 365.833,473.5 365.5,473.5C 365.667,451.831 365.5,430.164 365,408.5C 361.364,406.93 357.864,405.263 354.5,403.5 Z"/></g>
<g><path style="opacity:0.753" fill="#d3918a" d="M 389.5,416.5 C 391.698,416.12 393.365,416.787 394.5,418.5C 392.597,418.204 390.93,417.537 389.5,416.5 Z"/></g>
<g><path style="opacity:0.153" fill="#d3a7a4" d="M 691.5,415.5 C 690.22,416.931 688.553,417.598 686.5,417.5C 687.78,416.069 689.447,415.402 691.5,415.5 Z"/></g>
<g><path style="opacity:0.447" fill="#bf8380" d="M 680.5,419.5 C 679.22,420.931 677.553,421.598 675.5,421.5C 676.78,420.069 678.447,419.402 680.5,419.5 Z"/></g>
<g><path style="opacity:0.114" fill="#d2c4c3" d="M 366.5,409.5 C 367.167,430.5 367.833,451.5 368.5,472.5C 368.158,473.338 367.492,473.672 366.5,473.5C 366.5,452.167 366.5,430.833 366.5,409.5 Z"/></g>
<g><path style="opacity:1" fill="#b00000" d="M 796.5,377.5 C 797.209,376.596 798.209,376.263 799.5,376.5C 799.5,421.5 799.5,466.5 799.5,511.5C 799.165,466.657 798.165,421.991 796.5,377.5 Z"/></g>
<g><path style="opacity:1" fill="#cd7062" d="M 452.5,439.5 C 455.491,439.166 457.824,440.166 459.5,442.5C 456.843,442.065 454.509,441.065 452.5,439.5 Z"/></g>
<g><path style="opacity:1" fill="#a21417" d="M 713.5,408.5 C 713.833,408.5 714.167,408.5 714.5,408.5C 714.178,430.242 714.512,451.909 715.5,473.5C 714.508,473.672 713.842,473.338 713.5,472.5C 713.5,451.167 713.5,429.833 713.5,408.5 Z"/></g>
<g><path style="opacity:1" fill="#be4f3f" d="M 618.5,442.5 C 615.47,444.403 612.137,445.737 608.5,446.5C 610.891,443.083 614.225,441.75 618.5,442.5 Z"/></g>
<g><path style="opacity:0.135" fill="#d3c3c2" d="M 710.5,408.5 C 710.842,407.662 711.508,407.328 712.5,407.5C 713.167,407.5 713.5,407.833 713.5,408.5C 713.5,429.833 713.5,451.167 713.5,472.5C 713.167,472.5 712.833,472.5 712.5,472.5C 713.156,450.807 712.489,429.474 710.5,408.5 Z"/></g>
<g><path style="opacity:1" fill="#c63a26" d="M 466.5,444.5 C 469.48,444.62 472.313,445.287 475,446.5C 475.725,444.842 476.892,444.342 478.5,445C 479.313,446.803 480.48,448.303 482,449.5C 483.235,450.615 484.402,450.615 485.5,449.5C 487.001,450.752 488.668,451.752 490.5,452.5C 490.911,451.738 491.077,450.738 491,449.5C 492.309,451.891 493.309,451.891 494,449.5C 495.113,450.711 496.28,450.711 497.5,449.5C 498.5,450 499.5,450.5 500.5,451C 499.062,451.219 497.729,451.719 496.5,452.5C 496.827,454.494 498.16,456.161 500.5,457.5C 488.889,453.686 477.556,449.353 466.5,444.5 Z"/></g>
<g><path style="opacity:1" fill="#c15543" d="M 592.5,452.5 C 590.11,454.02 587.443,455.02 584.5,455.5C 585.953,454.175 585.619,453.342 583.5,453C 586.482,452.502 589.482,452.335 592.5,452.5 Z"/></g>
<g><path style="opacity:1" fill="#6aa566" d="M 406.5,462.5 C 403.167,462.5 399.833,462.5 396.5,462.5C 399.833,459.833 403.167,459.833 406.5,462.5 Z"/></g>
<g><path style="opacity:1" fill="#058603" d="M 712.5,472.5 C 712.833,472.5 713.167,472.5 713.5,472.5C 713.842,473.338 714.508,473.672 715.5,473.5C 717.936,474.871 720.603,475.871 723.5,476.5C 725.102,478.074 727.102,478.741 729.5,478.5C 734.823,480.828 740.157,483.161 745.5,485.5C 743.036,486.567 740.703,487.9 738.5,489.5C 731.789,490.848 725.456,493.181 719.5,496.5C 712.124,498.4 705.124,501.066 698.5,504.5C 688.974,506.672 679.974,510.006 671.5,514.5C 665.715,515.536 660.382,517.536 655.5,520.5C 653.447,520.402 651.78,521.069 650.5,522.5C 638.318,525.782 626.652,530.115 615.5,535.5C 607.015,537.418 599.015,540.418 591.5,544.5C 584.718,545.869 578.385,548.202 572.5,551.5C 564.968,553.007 557.968,555.674 551.5,559.5C 547.656,560.331 543.823,561.331 540,562.5C 537.209,561.594 534.376,560.927 531.5,560.5C 524.029,556.34 516.029,553.34 507.5,551.5C 506.22,550.069 504.553,549.402 502.5,549.5C 498.31,546.75 493.644,545.083 488.5,544.5C 451.278,529.439 413.611,515.439 375.5,502.5C 372.203,500.399 368.537,499.065 364.5,498.5C 358.598,495.197 352.264,492.864 345.5,491.5C 341.795,489.987 338.461,487.987 335.5,485.5C 339.895,483.313 344.562,481.646 349.5,480.5C 353.936,479.586 357.936,477.919 361.5,475.5C 362.995,475.011 364.329,474.345 365.5,473.5C 365.833,473.5 366.167,473.5 366.5,473.5C 367.492,473.672 368.158,473.338 368.5,472.5C 369.708,471.766 371.041,471.433 372.5,471.5C 374.553,471.598 376.22,470.931 377.5,469.5C 380.716,469.655 383.383,468.655 385.5,466.5C 389.021,464.771 392.687,463.438 396.5,462.5C 399.833,462.5 403.167,462.5 406.5,462.5C 451.171,478.835 495.837,495.168 540.5,511.5C 585.719,494.392 631.053,477.558 676.5,461C 678.5,460.333 680.5,460.333 682.5,461C 692.411,465.136 702.411,468.969 712.5,472.5 Z"/></g>
<g><path style="opacity:1" fill="#c66c5d" d="M 514.5,462.5 C 516.698,462.12 518.365,462.787 519.5,464.5C 517.447,464.598 515.78,463.931 514.5,462.5 Z"/></g>
<g><path style="opacity:1" fill="#9d0000" d="M 797.5,375.5 C 798.568,374.566 799.901,374.232 801.5,374.5C 801.5,488.167 801.5,601.833 801.5,715.5C 800.5,602.335 800.167,489.001 800.5,375.5C 799.5,375.5 798.5,375.5 797.5,375.5 Z"/></g>
<g><path style="opacity:0.894" fill="#63a163" d="M 385.5,466.5 C 383.383,468.655 380.716,469.655 377.5,469.5C 379.936,468.129 382.603,467.129 385.5,466.5 Z"/></g>
<g><path style="opacity:1" fill="#c24d3d" d="M 528.5,467.5 C 532.436,467.733 536.103,468.733 539.5,470.5C 539.5,470.833 539.5,471.167 539.5,471.5C 535.327,471.333 531.66,470 528.5,467.5 Z"/></g>
<g><path style="opacity:1" fill="#cd7566" d="M 547.5,469.5 C 545.484,470.588 543.317,471.588 541,472.5C 540.235,472.43 539.735,472.097 539.5,471.5C 539.833,471.5 540.167,471.5 540.5,471.5C 541.268,470.737 541.768,469.737 542,468.5C 543.699,469.406 545.533,469.739 547.5,469.5 Z"/></g>
<g><path style="opacity:0.341" fill="#8bc09e" d="M 377.5,469.5 C 376.22,470.931 374.553,471.598 372.5,471.5C 373.78,470.069 375.447,469.402 377.5,469.5 Z"/></g>
<g><path style="opacity:1" fill="#7b1c01" d="M 723.5,476.5 C 725.898,476.259 727.898,476.926 729.5,478.5C 727.102,478.741 725.102,478.074 723.5,476.5 Z"/></g>
<g><path style="opacity:1" fill="#1f4603" d="M 361.5,475.5 C 357.936,477.919 353.936,479.586 349.5,480.5C 353.064,478.081 357.064,476.414 361.5,475.5 Z"/></g>
<g><path style="opacity:1" fill="#004b00" d="M 335.5,485.5 C 338.461,487.987 341.795,489.987 345.5,491.5C 341.035,490.567 336.702,489.234 332.5,487.5C 332.5,487.167 332.5,486.833 332.5,486.5C 333.391,485.89 334.391,485.557 335.5,485.5 Z"/></g>
<g><path style="opacity:1" fill="#027f01" d="M 332.5,487.5 C 336.702,489.234 341.035,490.567 345.5,491.5C 351.222,495.155 357.556,497.488 364.5,498.5C 368.537,499.065 372.203,500.399 375.5,502.5C 412.651,517.664 450.318,531.664 488.5,544.5C 492.695,547.254 497.362,548.921 502.5,549.5C 504.553,549.402 506.22,550.069 507.5,551.5C 515.015,555.582 523.015,558.582 531.5,560.5C 533.731,562.201 536.231,563.534 539,564.5C 539.5,670.499 539.667,776.499 539.5,882.5C 517.87,875.071 496.537,867.071 475.5,858.5C 474.828,857.733 473.995,857.066 473,856.5C 472.833,819.998 472.333,783.664 471.5,747.5C 470.548,708.265 470.548,669.098 471.5,630C 436.961,616.9 402.294,604.067 367.5,591.5C 367.158,590.662 366.492,590.328 365.5,590.5C 361.282,588.559 356.949,586.892 352.5,585.5C 350.824,583.166 348.491,582.166 345.5,582.5C 341.5,581.167 337.5,579.833 333.5,578.5C 332.508,548.24 332.175,517.907 332.5,487.5 Z"/></g>
<g><path style="opacity:0.999" fill="#017800" d="M 745.5,485.5 C 745.833,485.5 746.167,485.5 746.5,485.5C 747.492,516.093 747.825,546.76 747.5,577.5C 735.94,581.461 724.607,585.794 713.5,590.5C 713.167,590.5 712.833,590.5 712.5,590.5C 696.325,596.892 679.991,602.892 663.5,608.5C 659.98,608.396 656.814,609.396 654,611.5C 652.187,610.391 651.354,611.058 651.5,613.5C 637.656,618.893 623.656,623.893 609.5,628.5C 609.193,704.51 609.527,780.344 610.5,856C 587.994,865.895 564.994,874.728 541.5,882.5C 541.333,776.499 541.5,670.499 542,564.5C 545.174,562.729 548.34,561.063 551.5,559.5C 558.876,557.6 565.876,554.934 572.5,551.5C 579.264,550.136 585.598,547.803 591.5,544.5C 600.029,542.66 608.029,539.66 615.5,535.5C 618.843,534.776 622.176,533.943 625.5,533C 633.975,529.643 642.308,526.143 650.5,522.5C 651.78,521.069 653.447,520.402 655.5,520.5C 661.267,519.469 666.601,517.469 671.5,514.5C 674.89,513.977 678.223,513.143 681.5,512C 687.438,509.757 693.105,507.257 698.5,504.5C 700.854,504.162 703.187,503.662 705.5,503C 710.396,501.101 715.063,498.935 719.5,496.5C 726.425,495.527 732.758,493.194 738.5,489.5C 740.703,487.9 743.036,486.567 745.5,485.5 Z"/></g>
<g><path style="opacity:1" fill="#004d00" d="M 738.5,489.5 C 732.758,493.194 726.425,495.527 719.5,496.5C 725.456,493.181 731.789,490.848 738.5,489.5 Z"/></g>
<g><path style="opacity:1" fill="#005100" d="M 345.5,491.5 C 352.264,492.864 358.598,495.197 364.5,498.5C 357.556,497.488 351.222,495.155 345.5,491.5 Z"/></g>
<g><path style="opacity:1" fill="#004b00" d="M 719.5,496.5 C 715.063,498.935 710.396,501.101 705.5,503C 703.187,503.662 700.854,504.162 698.5,504.5C 705.124,501.066 712.124,498.4 719.5,496.5 Z"/></g>
<g><path style="opacity:1" fill="#004c00" d="M 698.5,504.5 C 693.105,507.257 687.438,509.757 681.5,512C 678.223,513.143 674.89,513.977 671.5,514.5C 679.974,510.006 688.974,506.672 698.5,504.5 Z"/></g>
<g><path style="opacity:1" fill="#004d00" d="M 671.5,514.5 C 666.601,517.469 661.267,519.469 655.5,520.5C 660.382,517.536 665.715,515.536 671.5,514.5 Z"/></g>
<g><path style="opacity:1" fill="#032000" d="M 746.5,485.5 C 747.833,500.485 748.499,515.818 748.5,531.5C 748.5,547.004 748.167,562.337 747.5,577.5C 747.825,546.76 747.492,516.093 746.5,485.5 Z"/></g>
<g><path style="opacity:1" fill="#004d00" d="M 650.5,522.5 C 642.308,526.143 633.975,529.643 625.5,533C 622.176,533.943 618.843,534.776 615.5,535.5C 626.652,530.115 638.318,525.782 650.5,522.5 Z"/></g>
<g><path style="opacity:1" fill="#004d00" d="M 375.5,502.5 C 413.611,515.439 451.278,529.439 488.5,544.5C 450.318,531.664 412.651,517.664 375.5,502.5 Z"/></g>
<g><path style="opacity:1" fill="#630202" d="M 797.5,375.5 C 798.5,375.5 799.5,375.5 800.5,375.5C 800.167,489.001 800.5,602.335 801.5,715.5C 801.5,716.167 801.833,716.5 802.5,716.5C 801.167,717.833 799.833,717.833 798.5,716.5C 799.499,648.335 799.833,580.002 799.5,511.5C 799.5,466.5 799.5,421.5 799.5,376.5C 798.209,376.263 797.209,376.596 796.5,377.5C 792.89,378.703 789.223,379.703 785.5,380.5C 788.982,377.764 792.982,376.097 797.5,375.5 Z"/></g>
<g><path style="opacity:1" fill="#004e00" d="M 615.5,535.5 C 608.029,539.66 600.029,542.66 591.5,544.5C 599.015,540.418 607.015,537.418 615.5,535.5 Z"/></g>
<g><path style="opacity:1" fill="#004e00" d="M 488.5,544.5 C 493.644,545.083 498.31,546.75 502.5,549.5C 497.362,548.921 492.695,547.254 488.5,544.5 Z"/></g>
<g><path style="opacity:1" fill="#004b00" d="M 591.5,544.5 C 585.598,547.803 579.264,550.136 572.5,551.5C 578.385,548.202 584.718,545.869 591.5,544.5 Z"/></g>
<g><path style="opacity:1" fill="#004a00" d="M 572.5,551.5 C 565.876,554.934 558.876,557.6 551.5,559.5C 557.968,555.674 564.968,553.007 572.5,551.5 Z"/></g>
<g><path style="opacity:1" fill="#004f00" d="M 507.5,551.5 C 516.029,553.34 524.029,556.34 531.5,560.5C 523.015,558.582 515.015,555.582 507.5,551.5 Z"/></g>
<g><path style="opacity:1" fill="#4a0600" d="M 332.5,486.5 C 332.5,486.833 332.5,487.167 332.5,487.5C 332.175,517.907 332.508,548.24 333.5,578.5C 332.167,563.515 331.501,548.182 331.5,532.5C 331.5,516.996 331.833,501.663 332.5,486.5 Z"/></g>
<g><path style="opacity:1" fill="#283d04" d="M 345.5,582.5 C 348.491,582.166 350.824,583.166 352.5,585.5C 349.843,585.065 347.509,584.065 345.5,582.5 Z"/></g>
<g><path style="opacity:1" fill="#7c0000" d="M 311.5,387.5 C 301.01,384.559 290.677,381.225 280.5,377.5C 281.374,490.497 281.707,603.497 281.5,716.5C 280.833,716.5 280.167,716.5 279.5,716.5C 279.5,602.833 279.5,489.167 279.5,375.5C 290.463,378.929 301.129,382.929 311.5,387.5 Z"/></g>
<g><path style="opacity:0.678" fill="#508e4d" d="M 663.5,608.5 C 659.739,610.538 655.739,612.204 651.5,613.5C 651.354,611.058 652.187,610.391 654,611.5C 656.814,609.396 659.98,608.396 663.5,608.5 Z"/></g>
<g><path style="opacity:1" fill="#005100" d="M 551.5,559.5 C 548.34,561.063 545.174,562.729 542,564.5C 541.5,670.499 541.333,776.499 541.5,882.5C 540.833,882.5 540.167,882.5 539.5,882.5C 539.667,776.499 539.5,670.499 539,564.5C 536.231,563.534 533.731,562.201 531.5,560.5C 534.376,560.927 537.209,561.594 540,562.5C 543.823,561.331 547.656,560.331 551.5,559.5 Z"/></g>
<g><path style="opacity:1" fill="#b54938" d="M 365.5,590.5 C 366.492,590.328 367.158,590.662 367.5,591.5C 367.667,622.835 367.5,654.168 367,685.5C 364.765,687.202 362.265,688.202 359.5,688.5C 359.579,687.042 360.079,685.708 361,684.5C 362.356,685.38 363.856,685.714 365.5,685.5C 365.5,653.833 365.5,622.167 365.5,590.5 Z"/></g>
<g><path style="opacity:1" fill="#740001" d="M 875.5,657.5 C 879.777,657.142 883.11,658.642 885.5,662C 885.012,663.584 884.012,664.751 882.5,665.5C 882.709,666.086 883.043,666.586 883.5,667C 880.883,667.822 878.216,668.322 875.5,668.5C 875.351,667.448 875.517,666.448 876,665.5C 878.124,664.773 880.291,664.106 882.5,663.5C 883.386,662.675 883.719,661.675 883.5,660.5C 877.653,659.84 873.487,662.173 871,667.5C 870.333,666.5 870.333,665.5 871,664.5C 872.353,663.315 873.52,661.981 874.5,660.5C 873.738,660.089 872.738,659.923 871.5,660C 872.858,659.066 874.192,658.232 875.5,657.5 Z"/></g>
<g><path style="opacity:0.447" fill="#c05f5f" d="M 712.5,590.5 C 712.833,590.5 713.167,590.5 713.5,590.5C 714.498,621.996 714.832,653.662 714.5,685.5C 713.826,653.931 713.16,622.264 712.5,590.5 Z"/></g>
<g><path style="opacity:0.506" fill="#a65656" d="M 193.5,666.5 C 194.201,673.067 194.868,679.733 195.5,686.5C 193.541,680.25 192.874,673.584 193.5,666.5 Z"/></g>
<g><path style="opacity:1" fill="#770001" d="M 863.5,685.5 C 863.423,686.75 862.756,687.583 861.5,688C 852.428,689.938 844.095,692.938 836.5,697C 834.231,697.758 832.064,697.591 830,696.5C 829.691,697.766 829.191,698.933 828.5,700C 823.273,702.131 817.94,703.965 812.5,705.5C 810.865,704.954 809.199,704.62 807.5,704.5C 807.5,694.833 807.5,685.167 807.5,675.5C 809.512,674.986 811.512,674.82 813.5,675C 812.833,675.333 812.167,675.667 811.5,676C 812.793,676.49 814.127,676.657 815.5,676.5C 816.953,675.175 816.619,674.342 814.5,674C 815.899,673.405 817.232,673.572 818.5,674.5C 819.495,680.128 819.829,685.794 819.5,691.5C 820.873,691.343 822.207,691.51 823.5,692C 821.405,692.556 821.238,693.056 823,693.5C 824.225,693.138 825.391,692.638 826.5,692C 825.833,691.667 825.167,691.333 824.5,691C 826.303,690.363 827.636,689.197 828.5,687.5C 830.798,690.111 832.465,689.611 833.5,686C 832.552,685.517 831.552,685.351 830.5,685.5C 830.665,683.173 831.331,681.007 832.5,679C 829.345,678.019 829.012,676.685 831.5,675C 835.994,671.056 840.827,670.556 846,673.5C 846.2,669.247 846.7,665.08 847.5,661C 849.615,660.443 851.615,659.609 853.5,658.5C 856.833,659.167 858.167,661.167 857.5,664.5C 860.428,664.852 863.262,665.518 866,666.5C 866.974,664.122 867.641,664.456 868,667.5C 868.75,668.126 869.584,668.626 870.5,669C 869.692,669.308 869.025,669.808 868.5,670.5C 871.562,671.87 874.729,672.87 878,673.5C 881.201,673.234 881.367,674.4 878.5,677C 877.328,677.353 876.162,677.187 875,676.5C 870.369,678.631 870.536,680.464 875.5,682C 872.833,682 870.167,682 867.5,682C 866.468,683.627 865.134,684.793 863.5,685.5 Z"/></g>
<g><path style="opacity:1" fill="#b30000" d="M 863.5,685.5 C 860.863,686.63 858.197,686.63 855.5,685.5C 855.55,687.59 854.55,688.923 852.5,689.5C 851.167,680.833 851.167,672.167 852.5,663.5C 853.736,662.754 855.07,662.421 856.5,662.5C 856.336,665.187 856.503,667.854 857,670.5C 859.485,666.993 862.652,665.993 866.5,667.5C 867.744,673.862 866.744,679.862 863.5,685.5 Z"/></g>
<g><path style="opacity:1" fill="#6b0000" d="M 860.5,681.5 C 859.745,683.466 858.579,683.8 857,682.5C 856.333,679.5 856.333,676.5 857,673.5C 858.716,672.448 859.716,673.114 860,675.5C 861.383,672.924 862.217,673.258 862.5,676.5C 862.564,678.557 861.898,680.223 860.5,681.5 Z"/></g>
<g><path style="opacity:1" fill="#ca0001" d="M 860.5,681.5 C 859.325,681.719 858.325,681.386 857.5,680.5C 859.395,675.275 860.395,675.609 860.5,681.5 Z"/></g>
<g><path style="opacity:1" fill="#bc432f" d="M 886.5,680.5 C 887.048,681.688 887.381,682.855 887.5,684C 883.566,686.703 879.233,688.536 874.5,689.5C 874.586,688.504 874.252,687.671 873.5,687C 877.504,686.827 881.504,685.827 885.5,684C 882.841,682.134 883.174,680.967 886.5,680.5 Z"/></g>
<g><path style="opacity:1" fill="#ab0001" d="M 840.5,674.5 C 842.5,674.5 844.5,674.5 846.5,674.5C 846.808,680.425 846.475,686.259 845.5,692C 844.216,692.684 843.049,692.517 842,691.5C 838.412,696.253 834.246,697.086 829.5,694C 831.1,692.392 832.433,690.559 833.5,688.5C 835.679,687.243 837.679,685.743 839.5,684C 837.301,682.417 834.968,682.25 832.5,683.5C 833.765,679.236 836.432,676.236 840.5,674.5 Z"/></g>
<g><path style="opacity:1" fill="#ba0000" d="M 848.5,663.5 C 849.825,667.445 850.492,671.778 850.5,676.5C 850.167,680.833 849.833,685.167 849.5,689.5C 848.502,680.859 848.169,672.192 848.5,663.5 Z"/></g>
<g><path style="opacity:1" fill="#be0000" d="M 809.5,677.5 C 810.825,681.445 811.492,685.778 811.5,690.5C 811.167,694.833 810.833,699.167 810.5,703.5C 809.502,694.859 809.169,686.192 809.5,677.5 Z"/></g>
<g><path style="opacity:1" fill="#bf503e" d="M 343.5,694.5 C 337.332,697.075 330.999,699.409 324.5,701.5C 327.639,698.841 331.306,697.174 335.5,696.5C 335.351,695.448 335.517,694.448 336,693.5C 338.381,694.435 340.881,694.768 343.5,694.5 Z"/></g>
<g><path style="opacity:1" fill="#bc4433" d="M 731.5,691.5 C 737.356,691.768 742.356,693.768 746.5,697.5C 741.105,696.262 736.105,694.262 731.5,691.5 Z"/></g>
<g><path style="opacity:1" fill="#b70000" d="M 815.5,676.5 C 817.209,682.465 818.209,688.799 818.5,695.5C 821.432,696.062 824.265,695.396 827,693.5C 827.495,695.473 827.662,697.473 827.5,699.5C 822.405,700.552 817.405,701.885 812.5,703.5C 812.334,695.16 812.5,686.827 813,678.5C 813.995,677.934 814.828,677.267 815.5,676.5 Z"/></g>
<g><path style="opacity:1" fill="#bc5749" d="M 845.5,700.5 C 843.11,702.02 840.443,703.02 837.5,703.5C 839.361,702.42 840.027,701.086 839.5,699.5C 841.409,700.348 843.409,700.682 845.5,700.5 Z"/></g>
<g><path style="opacity:1" fill="#be6f60" d="M 238.5,702.5 C 240.698,702.12 242.365,702.787 243.5,704.5C 241.447,704.598 239.78,703.931 238.5,702.5 Z"/></g>
<g><path style="opacity:0.765" fill="#c87869" d="M 762.5,703.5 C 764.698,703.12 766.365,703.787 767.5,705.5C 765.597,705.204 763.93,704.537 762.5,703.5 Z"/></g>
<g><path style="opacity:0.22" fill="#bf827d" d="M 313.5,705.5 C 312.22,706.931 310.553,707.598 308.5,707.5C 309.78,706.069 311.447,705.402 313.5,705.5 Z"/></g>
<g><path style="opacity:1" fill="#be5446" d="M 774.5,707.5 C 777.491,707.166 779.824,708.166 781.5,710.5C 778.843,710.065 776.509,709.065 774.5,707.5 Z"/></g>
<g><path style="opacity:1" fill="#c46656" d="M 823.5,708.5 C 821.574,710.293 819.241,711.293 816.5,711.5C 817.687,710.466 818.52,709.133 819,707.5C 820.356,708.38 821.856,708.714 823.5,708.5 Z"/></g>
<g><path style="opacity:0.173" fill="#c69089" d="M 305.5,708.5 C 304.22,709.931 302.553,710.598 300.5,710.5C 301.78,709.069 303.447,708.402 305.5,708.5 Z"/></g>
<g><path style="opacity:0.773" fill="#c67065" d="M 262.5,711.5 C 264.698,711.12 266.365,711.787 267.5,713.5C 265.597,713.204 263.93,712.537 262.5,711.5 Z"/></g>
<g><path style="opacity:1" fill="#af6157" d="M 273.5,715.5 C 275.565,715.517 277.565,715.85 279.5,716.5C 280.167,716.5 280.833,716.5 281.5,716.5C 282.5,716.5 283.5,716.5 284.5,716.5C 280.675,719.022 277.008,718.689 273.5,715.5 Z"/></g>
<g><path style="opacity:0.843" fill="#046602" d="M 471.5,747.5 C 472.333,783.664 472.833,819.998 473,856.5C 473.995,857.066 474.828,857.733 475.5,858.5C 474.167,858.5 472.833,858.5 471.5,858.5C 471.5,821.5 471.5,784.5 471.5,747.5 Z"/></g>
</svg>
