<?xml version="1.0" encoding="UTF-8"?>
<!DOCTYPE svg PUBLIC "-//W3C//DTD SVG 1.1//EN" "http://www.w3.org/Graphics/SVG/1.1/DTD/svg11.dtd">
<svg xmlns="http://www.w3.org/2000/svg" version="1.1" width="1079px" height="1079px" style="shape-rendering:geometricPrecision; text-rendering:geometricPrecision; image-rendering:optimizeQuality; fill-rule:evenodd; clip-rule:evenodd" xmlns:xlink="http://www.w3.org/1999/xlink">
<g><path style="opacity:0.999" fill="#133196" d="M 504.5,314.5 C 600.595,311.084 694.929,322.251 787.5,348C 840.071,362.623 888.738,385.29 933.5,416C 962.152,435.977 984.319,461.477 1000,492.5C 1014.37,528.767 1012.37,564.1 994,598.5C 973.026,631.141 945.86,657.308 912.5,677C 850.239,712.868 783.572,736.868 712.5,749C 587.1,771.385 462.1,769.385 337.5,743C 280.906,730.693 227.24,710.693 176.5,683C 149.849,667.901 126.015,649.068 105,626.5C 56.8036,568.387 56.8036,510.387 105,452.5C 136.518,419.477 173.351,393.977 215.5,376C 285.595,346.226 358.595,327.559 434.5,320C 457.951,317.662 481.284,315.829 504.5,314.5 Z"/></g>
<g><path style="opacity:1" fill="#f5f3f4" d="M 498.5,337.5 C 585.913,334.812 672.247,342.978 757.5,362C 811.697,374.506 862.697,394.839 910.5,423C 937.954,440.121 960.454,462.287 978,489.5C 995.899,522.793 995.899,556.126 978,589.5C 965.381,609.792 949.547,627.292 930.5,642C 898.727,665.223 864.06,683.223 826.5,696C 750.352,722.096 672.019,736.762 591.5,740C 509.422,744.636 428.088,738.97 347.5,723C 294.121,712.651 243.121,695.318 194.5,671C 163.277,655.119 136.111,633.953 113,607.5C 77.7928,559.444 79.1261,512.444 117,466.5C 146.64,435.213 181.473,411.38 221.5,395C 280.911,370.396 342.578,354.063 406.5,346C 437.289,342.713 467.956,339.88 498.5,337.5 Z"/></g>
<g><path style="opacity:1" fill="#d4e342" d="M 494.5,348.5 C 590.029,344.32 684.029,354.153 776.5,378C 820.423,390.08 862.089,407.414 901.5,430C 926.777,444.94 947.944,464.44 965,488.5C 987.557,527.352 985.223,564.685 958,600.5C 938.945,622.591 916.779,640.758 891.5,655C 837.565,683.423 780.565,703.09 720.5,714C 615.597,732.903 510.263,735.569 404.5,722C 338.593,713.358 275.259,695.691 214.5,669C 178.374,652.862 147.208,630.028 121,600.5C 89.4777,556.514 91.1444,513.847 126,472.5C 154.441,443.184 187.607,420.684 225.5,405C 290.952,377.977 358.952,360.977 429.5,354C 451.29,351.797 472.957,349.963 494.5,348.5 Z"/></g>
<g><path style="opacity:1" fill="#ecedeb" d="M 482.5,374.5 C 485.5,374.5 488.5,374.5 491.5,374.5C 491.5,379.167 491.5,383.833 491.5,388.5C 487.397,387.769 483.897,388.769 481,391.5C 481.184,399.812 481.351,408.145 481.5,416.5C 476.833,416.833 472.167,417.167 467.5,417.5C 467.53,403.789 466.863,390.122 465.5,376.5C 470.395,375.486 475.229,375.486 480,376.5C 480.995,375.934 481.828,375.267 482.5,374.5 Z"/></g>
<g><path style="opacity:1" fill="#0f339a" d="M 483.5,376.5 C 485.5,376.5 487.5,376.5 489.5,376.5C 489.5,379.5 489.5,382.5 489.5,385.5C 485.15,385.457 481.65,387.123 479,390.5C 479.022,398.487 479.189,406.487 479.5,414.5C 475.97,415.011 472.804,414.344 470,412.5C 469.093,401.182 468.593,389.849 468.5,378.5C 471.5,378.5 474.5,378.5 477.5,378.5C 477.34,380.199 477.506,381.866 478,383.5C 479.371,380.734 481.204,378.401 483.5,376.5 Z"/></g>
<g><path style="opacity:1" fill="#e8e9e8" d="M 722.5,378.5 C 726.534,378.672 730.534,379.172 734.5,380C 735.624,380.839 736.291,382.006 736.5,383.5C 733.283,400.138 730.283,416.805 727.5,433.5C 722.605,432.8 717.938,431.467 713.5,429.5C 702.633,432.133 695.466,428.133 692,417.5C 690.283,408.753 691.95,400.753 697,393.5C 704.325,386.408 712.158,385.741 720.5,391.5C 721.576,387.225 722.243,382.892 722.5,378.5 Z"/></g>
<g><path style="opacity:1" fill="#0b3299" d="M 725.5,381.5 C 728.722,381.108 731.722,381.608 734.5,383C 731.57,398.483 728.57,413.983 725.5,429.5C 722.588,430.068 719.588,430.068 716.5,429.5C 716.657,428.127 716.49,426.793 716,425.5C 705.563,430.569 698.229,427.569 694,416.5C 692.532,406.163 695.699,397.663 703.5,391C 711.406,388.745 717.573,390.911 722,397.5C 722.939,392.076 724.105,386.742 725.5,381.5 Z"/></g>
<g><path style="opacity:1" fill="#eeeeeb" d="M 310.5,384.5 C 320.655,382.38 329.155,385.047 336,392.5C 338.33,395.465 338.83,398.632 337.5,402C 334.728,402.526 332.062,403.359 329.5,404.5C 335.358,405.007 339.858,407.674 343,412.5C 342.583,405.767 341.916,399.1 341,392.5C 346.43,391.27 351.93,390.27 357.5,389.5C 358.35,398.6 359.85,407.6 362,416.5C 366.137,418.494 367.97,417.16 367.5,412.5C 366.27,404.124 364.937,395.791 363.5,387.5C 367.9,387.317 372.234,386.651 376.5,385.5C 377.5,385.833 378.5,386.167 379.5,386.5C 382.445,400.452 385.112,414.452 387.5,428.5C 379.672,429.138 372.005,430.638 364.5,433C 355.438,434.606 349.272,431.106 346,422.5C 344.474,431.03 339.641,436.863 331.5,440C 314.651,447.398 303.318,442.565 297.5,425.5C 301.108,424.181 304.775,423.014 308.5,422C 296.303,417.781 291.803,409.281 295,396.5C 298.659,390.435 303.826,386.435 310.5,384.5 Z"/></g>
<g><path style="opacity:1" fill="#e9eaec" d="M 530.5,372.5 C 539.168,371.358 545.335,374.692 549,382.5C 549.5,393.161 549.667,403.828 549.5,414.5C 544.833,414.5 540.167,414.5 535.5,414.5C 535.666,405.494 535.5,396.494 535,387.5C 533.267,385.398 531.267,385.065 529,386.5C 528.5,395.827 528.334,405.161 528.5,414.5C 523.833,414.5 519.167,414.5 514.5,414.5C 514.666,405.494 514.5,396.494 514,387.5C 511.667,384.833 509.333,384.833 507,387.5C 506.248,396.868 506.415,406.201 507.5,415.5C 502.833,415.5 498.167,415.5 493.5,415.5C 492.846,401.843 492.513,388.176 492.5,374.5C 497.233,374.223 501.9,374.557 506.5,375.5C 512.635,372.693 518.635,373.026 524.5,376.5C 526.565,375.143 528.565,373.81 530.5,372.5 Z"/></g>
<g><path style="opacity:1" fill="#063098" d="M 547.5,411.5 C 544.5,411.5 541.5,411.5 538.5,411.5C 538.823,405.31 538.49,399.31 537.5,393.5C 538.805,383.945 535.305,381.278 527,385.5C 525.557,394.392 525.057,403.392 525.5,412.5C 522.5,412.5 519.5,412.5 516.5,412.5C 516.666,403.827 516.5,395.16 516,386.5C 512.333,382.5 508.667,382.5 505,386.5C 504.5,395.16 504.334,403.827 504.5,412.5C 501.5,412.5 498.5,412.5 495.5,412.5C 495.576,400.485 495.243,388.485 494.5,376.5C 497.5,376.5 500.5,376.5 503.5,376.5C 503.238,377.978 503.571,379.311 504.5,380.5C 508.465,375.878 513.465,374.378 519.5,376C 521.585,377.041 523.252,378.541 524.5,380.5C 530.025,374.81 536.358,373.976 543.5,378C 545.317,379.8 546.484,381.966 547,384.5C 547.5,393.494 547.666,402.494 547.5,411.5 Z"/></g>
<g><path style="opacity:1" fill="#e8e9ea" d="M 440.5,377.5 C 457.215,376.545 465.548,384.545 465.5,401.5C 462.596,417.137 453.263,422.97 437.5,419C 431.73,416.305 428.23,411.805 427,405.5C 425.418,419.274 417.918,425.274 404.5,423.5C 404.167,424.333 403.833,425.167 403.5,426C 404.73,430.084 405.397,434.251 405.5,438.5C 400.87,439.229 396.203,439.563 391.5,439.5C 388.98,421.527 386.647,403.527 384.5,385.5C 391.061,385.317 397.395,384.15 403.5,382C 414.189,380.18 421.523,384.346 425.5,394.5C 426.692,385.316 431.692,379.65 440.5,377.5 Z"/></g>
<g><path style="opacity:1" fill="#0c3299" d="M 404.5,383.5 C 417.378,383.711 424.045,390.378 424.5,403.5C 423.411,419.612 415.577,424.612 401,418.5C 401.383,424.459 401.883,430.459 402.5,436.5C 399.482,436.704 396.482,437.037 393.5,437.5C 391.02,420.847 388.687,404.181 386.5,387.5C 388.696,387.41 390.863,387.077 393,386.5C 394.89,386.785 396.223,387.785 397,389.5C 399.114,386.879 401.614,384.879 404.5,383.5 Z"/></g>
<g><path style="opacity:1" fill="#073198" d="M 440.5,379.5 C 455.133,378.133 462.466,384.8 462.5,399.5C 454.545,400.661 446.545,401.328 438.5,401.5C 439.18,409.339 443.18,411.839 450.5,409C 453.929,405.645 457.929,404.478 462.5,405.5C 460.961,411.872 456.961,415.705 450.5,417C 439.693,419.848 432.526,416.014 429,405.5C 425.592,393.334 429.426,384.668 440.5,379.5 Z"/></g>
<g><path style="opacity:1" fill="#0a3199" d="M 313.5,386.5 C 323.533,385.348 330.867,389.182 335.5,398C 333.367,400.217 330.7,401.384 327.5,401.5C 325.076,400.262 322.742,398.762 320.5,397C 316.256,395.987 312.423,396.82 309,399.5C 306.849,402.216 307.016,404.716 309.5,407C 317.167,407.333 324.833,407.667 332.5,408C 342.522,412.897 345.022,420.397 340,430.5C 330.564,439.805 319.731,441.972 307.5,437C 304.066,434.297 302.066,430.797 301.5,426.5C 304.74,426.232 307.906,425.566 311,424.5C 312.394,425.613 313.561,426.947 314.5,428.5C 320.55,430.367 326.05,429.367 331,425.5C 332.14,422.472 331.306,420.305 328.5,419C 321.167,418.667 313.833,418.333 306.5,418C 297.011,412.85 294.511,405.35 299,395.5C 303.042,391.07 307.875,388.07 313.5,386.5 Z"/></g>
<g><path style="opacity:1" fill="#e9eaea" d="M 593.5,375.5 C 598.37,375.032 603.036,375.698 607.5,377.5C 610.877,375.675 614.543,375.008 618.5,375.5C 618.335,379.182 618.501,382.848 619,386.5C 624.229,377.979 631.729,375.145 641.5,378C 650.721,381.273 654.721,387.773 653.5,397.5C 648.819,397.331 644.152,396.998 639.5,396.5C 640.247,390.933 637.913,389.1 632.5,391C 628.999,396.162 628.666,401.496 631.5,407C 636.199,408.713 638.532,407.213 638.5,402.5C 643.858,402.738 649.191,402.904 654.5,403C 656.208,400.957 658.208,399.29 660.5,398C 655.123,397.002 653.956,394.169 657,389.5C 660.132,383.849 664.965,381.182 671.5,381.5C 676.825,381.886 681.825,383.386 686.5,386C 688.049,387.214 689.215,388.714 690,390.5C 690.662,398.734 690.162,406.9 688.5,415C 688.804,418.511 689.137,422.011 689.5,425.5C 683.801,426.069 678.468,425.069 673.5,422.5C 660.474,426.42 653.307,421.754 652,408.5C 648.772,416.219 642.938,420.219 634.5,420.5C 621.554,419.552 615.221,412.552 615.5,399.5C 615.724,396.145 616.057,392.812 616.5,389.5C 612.713,388.814 609.546,389.814 607,392.5C 605.777,400.453 605.277,408.453 605.5,416.5C 600.833,416.5 596.167,416.5 591.5,416.5C 591.669,402.807 592.336,389.14 593.5,375.5 Z"/></g>
<g><path style="opacity:1" fill="#093199" d="M 664.5,384.5 C 671.909,383.621 678.909,384.788 685.5,388C 686.701,388.903 687.535,390.069 688,391.5C 687.904,400.373 687.07,409.206 685.5,418C 685.603,419.561 685.937,421.061 686.5,422.5C 683.295,422.823 679.962,422.823 676.5,422.5C 676.762,421.022 676.429,419.689 675.5,418.5C 668.909,422.74 662.575,422.407 656.5,417.5C 653.098,411.132 654.098,405.632 659.5,401C 665.39,399.755 671.39,399.088 677.5,399C 680.167,397 680.167,395 677.5,393C 673.6,390.595 670.266,391.095 667.5,394.5C 664.894,395.652 662.227,395.818 659.5,395C 658.483,393.951 658.316,392.784 659,391.5C 659.967,388.379 661.8,386.046 664.5,384.5 Z"/></g>
<g><path style="opacity:1" fill="#0c3299" d="M 630.5,379.5 C 636.233,378.895 641.566,380.062 646.5,383C 649.949,386.065 651.616,389.898 651.5,394.5C 648.428,394.817 645.428,394.484 642.5,393.5C 640.909,388.396 637.576,386.563 632.5,388C 627.309,393.69 626.142,400.19 629,407.5C 632.667,411.5 636.333,411.5 640,407.5C 640.483,406.552 640.649,405.552 640.5,404.5C 643.187,404.336 645.854,404.503 648.5,405C 649.308,405.308 649.975,405.808 650.5,406.5C 646.037,416.613 638.37,420.113 627.5,417C 620.652,413.506 617.319,407.84 617.5,400C 617.682,390.356 622.015,383.523 630.5,379.5 Z"/></g>
<g><path style="opacity:1" fill="#13359b" d="M 595.5,377.5 C 598.5,377.5 601.5,377.5 604.5,377.5C 604.338,379.527 604.505,381.527 605,383.5C 607.654,379.256 611.487,377.256 616.5,377.5C 616.5,380.833 616.5,384.167 616.5,387.5C 610.511,386.065 606.345,388.065 604,393.5C 603.5,400.492 603.334,407.492 603.5,414.5C 600.167,414.5 596.833,414.5 593.5,414.5C 594.042,402.159 594.709,389.826 595.5,377.5 Z"/></g>
<g><path style="opacity:1" fill="#0d3299" d="M 373.5,388.5 C 374.833,388.5 376.167,388.5 377.5,388.5C 379.713,399.777 381.713,411.111 383.5,422.5C 383.43,423.772 383.097,424.938 382.5,426C 379.522,426.696 376.522,427.196 373.5,427.5C 373.649,426.448 373.483,425.448 373,424.5C 366.703,431.05 359.703,432.05 352,427.5C 350.092,424.785 348.759,421.785 348,418.5C 346.987,410.389 345.487,402.389 343.5,394.5C 346.959,394.469 350.292,393.802 353.5,392.5C 355.666,401.139 357.833,409.806 360,418.5C 366.705,422.311 370.205,420.311 370.5,412.5C 369.368,405.268 368.035,398.102 366.5,391C 368.833,389.957 371.166,389.124 373.5,388.5 Z"/></g>
<g><path style="opacity:1" fill="#e1e3ea" d="M 441.5,387.5 C 447.046,386.139 450.712,388.139 452.5,393.5C 451.975,394.192 451.308,394.692 450.5,395C 446.179,395.499 441.846,395.666 437.5,395.5C 437.343,394.127 437.51,392.793 438,391.5C 439.376,390.295 440.542,388.962 441.5,387.5 Z"/></g>
<g><path style="opacity:1" fill="#d8e55b" d="M 442.5,389.5 C 445.346,389.03 447.679,389.863 449.5,392C 446.776,392.27 444.109,392.77 441.5,393.5C 441.167,393.167 440.833,392.833 440.5,392.5C 441.193,391.482 441.859,390.482 442.5,389.5 Z"/></g>
<g><path style="opacity:1" fill="#e9eaed" d="M 402.5,392.5 C 408.308,391.652 412.142,393.985 414,399.5C 414.667,402.833 414.667,406.167 414,409.5C 411.774,413.861 408.274,415.361 403.5,414C 401.274,412.773 399.774,410.939 399,408.5C 398.333,404.5 398.333,400.5 399,396.5C 399.69,394.65 400.856,393.316 402.5,392.5 Z"/></g>
<g><path style="opacity:1" fill="#346bb4" d="M 537.5,393.5 C 538.49,399.31 538.823,405.31 538.5,411.5C 541.5,411.5 544.5,411.5 547.5,411.5C 544.375,412.479 541.042,412.813 537.5,412.5C 537.5,406.167 537.5,399.833 537.5,393.5 Z"/></g>
<g><path style="opacity:1" fill="#dce76c" d="M 670.5,393.5 C 673.969,392.887 675.969,394.221 676.5,397.5C 674.167,397.5 671.833,397.5 669.5,397.5C 669.433,396.041 669.766,394.708 670.5,393.5 Z"/></g>
<g><path style="opacity:1" fill="#d6e34b" d="M 403.5,394.5 C 409.823,394.91 412.823,398.41 412.5,405C 412.542,410.632 409.876,412.966 404.5,412C 400.695,407.909 399.528,403.076 401,397.5C 402.045,396.627 402.878,395.627 403.5,394.5 Z"/></g>
<g><path style="opacity:1" fill="#d6e44d" d="M 575.5,399.5 C 575.5,399.833 575.5,400.167 575.5,400.5C 575.126,402.95 573.626,403.95 571,403.5C 568.383,403.873 566.55,402.873 565.5,400.5C 568.768,399.513 572.102,399.18 575.5,399.5 Z"/></g>
<g><path style="opacity:1" fill="#e9eeae" d="M 589.5,388.5 C 590.833,393.167 590.833,397.833 589.5,402.5C 589.389,401.883 589.056,401.383 588.5,401C 584.179,400.501 579.846,400.334 575.5,400.5C 575.5,400.167 575.5,399.833 575.5,399.5C 580.167,399.5 584.833,399.5 589.5,399.5C 589.5,395.833 589.5,392.167 589.5,388.5 Z"/></g>
<g><path style="opacity:1" fill="#e6e8e8" d="M 709.5,398.5 C 718.202,398.555 721.702,402.888 720,411.5C 718.938,418.945 714.771,421.779 707.5,420C 703.281,415.1 702.448,409.6 705,403.5C 706.707,401.963 708.207,400.296 709.5,398.5 Z"/></g>
<g><path style="opacity:1" fill="#d6e44c" d="M 314.5,399.5 C 318.271,398.774 320.937,400.107 322.5,403.5C 318.555,404.491 314.555,404.824 310.5,404.5C 310.281,403.325 310.614,402.325 311.5,401.5C 312.739,401.058 313.739,400.391 314.5,399.5 Z"/></g>
<g><path style="opacity:1" fill="#d5e347" d="M 709.5,401.5 C 715.326,400.329 717.993,402.663 717.5,408.5C 718.061,413.733 715.894,417.066 711,418.5C 707.128,417.618 705.295,415.118 705.5,411C 705.884,407.403 707.217,404.236 709.5,401.5 Z"/></g>
<g><path style="opacity:1" fill="#d7e452" d="M 440.5,403.5 C 443.833,403.5 447.167,403.5 450.5,403.5C 450.763,406.734 449.263,408.068 446,407.5C 442.867,407.858 441.033,406.525 440.5,403.5 Z"/></g>
<g><path style="opacity:1" fill="#e9eaea" d="M 589.5,388.5 C 589.5,392.167 589.5,395.833 589.5,399.5C 584.833,399.5 580.167,399.5 575.5,399.5C 572.102,399.18 568.768,399.513 565.5,400.5C 566.55,402.873 568.383,403.873 571,403.5C 573.626,403.95 575.126,402.95 575.5,400.5C 579.846,400.334 584.179,400.501 588.5,401C 589.056,401.383 589.389,401.883 589.5,402.5C 585.308,413.436 577.308,417.936 565.5,416C 555.518,412.887 550.851,406.053 551.5,395.5C 551.683,378.816 560.016,371.649 576.5,374C 583.937,376.036 588.271,380.87 589.5,388.5 Z"/></g>
<g><path style="opacity:1" fill="#093299" d="M 565.5,375.5 C 581.208,374.542 588.542,381.875 587.5,397.5C 579.5,397.5 571.5,397.5 563.5,397.5C 563.802,404.632 567.469,407.465 574.5,406C 578.174,402.422 582.507,401.589 587.5,403.5C 582.346,412.393 574.68,415.559 564.5,413C 558.843,411.217 555.343,407.384 554,401.5C 551.214,389.632 555.047,380.965 565.5,375.5 Z"/></g>
<g><path style="opacity:1" fill="#e0e3e6" d="M 567.5,383.5 C 573.941,382.54 577.607,385.207 578.5,391.5C 573.5,391.5 568.5,391.5 563.5,391.5C 563.343,390.127 563.51,388.793 564,387.5C 565.376,386.295 566.542,384.962 567.5,383.5 Z"/></g>
<g><path style="opacity:1" fill="#d8e557" d="M 568.5,385.5 C 570.977,385.051 572.977,385.717 574.5,387.5C 571.894,388.652 569.227,388.818 566.5,388C 567.381,387.292 568.047,386.458 568.5,385.5 Z"/></g>
<g><path style="opacity:1" fill="#e6e8eb" d="M 667.5,405.5 C 670.833,405.5 674.167,405.5 677.5,405.5C 677.124,414.428 672.958,417.095 665,413.5C 663.837,410.029 664.67,407.362 667.5,405.5 Z"/></g>
<g><path style="opacity:1" fill="#d7e453" d="M 668.5,407.5 C 670.924,407.192 673.257,407.526 675.5,408.5C 673.585,412.008 670.585,413.341 666.5,412.5C 666.365,410.446 667.032,408.779 668.5,407.5 Z"/></g>
<g><path style="opacity:1" fill="#d6e44e" d="M 314.5,421.5 C 319.167,421.5 323.833,421.5 328.5,421.5C 328.67,422.822 328.337,423.989 327.5,425C 323.48,427.788 319.48,427.955 315.5,425.5C 314.754,424.264 314.421,422.93 314.5,421.5 Z"/></g>
<g><path style="opacity:1" fill="#e9eaea" d="M 745.5,397.5 C 754.587,396.054 762.753,398.054 770,403.5C 774.988,410.849 775.822,418.683 772.5,427C 774.722,427.695 776.889,428.528 779,429.5C 779.5,429.167 780,428.833 780.5,428.5C 774.98,420.509 776.314,413.676 784.5,408C 794.452,405.876 802.952,408.376 810,415.5C 811.367,419.7 811.867,424.033 811.5,428.5C 809.131,428.149 806.797,427.982 804.5,428C 811.319,435.486 810.652,442.486 802.5,449C 790.349,452.677 780.515,449.51 773,439.5C 771.339,435.892 771.005,432.225 772,428.5C 768.81,436.346 762.977,440.013 754.5,439.5C 740.881,439.381 733.548,432.547 732.5,419C 732.992,409.375 737.326,402.208 745.5,397.5 Z"/></g>
<g><path style="opacity:1" fill="#0a3299" d="M 786.5,409.5 C 793.326,408.957 799.659,410.457 805.5,414C 809.371,417.439 810.371,421.606 808.5,426.5C 804.073,425.897 801.239,423.564 800,419.5C 797.237,417.03 794.07,416.196 790.5,417C 787.936,419.276 788.27,421.276 791.5,423C 797.206,425.423 802.039,428.923 806,433.5C 806.837,445.323 801.337,450.156 789.5,448C 783.078,446.553 778.244,443.053 775,437.5C 774.186,435.098 774.353,432.765 775.5,430.5C 778.021,431.785 780.687,432.452 783.5,432.5C 783.081,435.325 784.081,437.491 786.5,439C 789.688,440.316 793.022,440.816 796.5,440.5C 796.785,438.712 796.452,437.045 795.5,435.5C 791.833,433.333 788.167,431.167 784.5,429C 777.424,421.699 778.091,415.199 786.5,409.5 Z"/></g>
<g><path style="opacity:1" fill="#d8e55a" d="M 791.5,420.5 C 794.367,418.879 796.7,419.546 798.5,422.5C 798.167,422.833 797.833,423.167 797.5,423.5C 795.473,422.487 793.473,421.487 791.5,420.5 Z"/></g>
<g><path style="opacity:1" fill="#073199" d="M 746.5,399.5 C 757.953,397.479 766.453,401.479 772,411.5C 773.599,419.295 771.932,426.295 767,432.5C 758.295,438.953 749.461,439.12 740.5,433C 735.767,427 734.267,420.166 736,412.5C 738.093,406.954 741.593,402.621 746.5,399.5 Z"/></g>
<g><path style="opacity:1" fill="#e7e8ed" d="M 750.5,407.5 C 761.211,407.057 765.045,412.057 762,422.5C 759.86,428.487 755.693,430.654 749.5,429C 744.78,425.702 743.28,421.202 745,415.5C 746.273,412.403 748.107,409.736 750.5,407.5 Z"/></g>
<g><path style="opacity:1" fill="#d5e34a" d="M 751.5,409.5 C 757.056,408.862 760.056,411.196 760.5,416.5C 760.443,421.978 757.943,425.644 753,427.5C 746.435,425.248 744.768,420.915 748,414.5C 748.997,412.677 750.164,411.01 751.5,409.5 Z"/></g>
<g><path style="opacity:1" fill="#d8e558" d="M 785.5,433.5 C 789.024,433.929 792.024,435.429 794.5,438C 790.077,439.122 787.077,437.622 785.5,433.5 Z"/></g>
<g><path style="opacity:1" fill="#e6ebed" d="M 529.5,465.5 C 534.167,465.5 538.833,465.5 543.5,465.5C 543.5,464.5 543.5,463.5 543.5,462.5C 539.617,460.605 535.283,459.439 530.5,459C 529.62,457.644 529.286,456.144 529.5,454.5C 534.937,454.637 540.27,453.97 545.5,452.5C 545.833,451.833 546.167,451.167 546.5,450.5C 537.525,449.502 528.525,449.168 519.5,449.5C 519.238,448.022 519.571,446.689 520.5,445.5C 524.96,443.384 529.627,441.884 534.5,441C 553.833,440.333 573.167,440.333 592.5,441C 604.886,442.999 609.386,449.833 606,461.5C 598.267,473.235 589.767,484.402 580.5,495C 576.905,496.073 574.905,494.739 574.5,491C 575.726,487.395 577.059,483.895 578.5,480.5C 577.448,480.351 576.448,480.517 575.5,481C 574.478,483.545 573.312,486.045 572,488.5C 570.53,490.152 568.697,491.152 566.5,491.5C 555.543,488.511 544.543,485.677 533.5,483C 531.675,481.534 531.175,479.701 532,477.5C 534.921,476.223 537.755,474.89 540.5,473.5C 540.291,472.914 539.957,472.414 539.5,472C 535.695,471.466 532.029,470.466 528.5,469C 527.2,467.421 527.534,466.255 529.5,465.5 Z"/></g>
<g><path style="opacity:1" fill="#0c339a" d="M 532.5,468.5 C 536.5,467.833 540.5,467.167 544.5,466.5C 544.833,463.833 545.167,461.167 545.5,458.5C 540.785,458.494 536.118,457.994 531.5,457C 536.834,456.433 542.167,455.933 547.5,455.5C 548.092,452.873 548.425,450.206 548.5,447.5C 539.827,447.666 531.16,447.5 522.5,447C 526.549,444.902 530.882,443.569 535.5,443C 554.833,442.333 574.167,442.333 593.5,443C 597.363,444.181 600.863,446.014 604,448.5C 605.483,451.702 605.817,455.036 605,458.5C 597.48,471.184 588.646,482.85 578.5,493.5C 576.616,492.307 576.116,490.641 577,488.5C 578.5,486.167 580,483.833 581.5,481.5C 579.882,479.684 577.882,478.351 575.5,477.5C 573.413,480.673 571.579,484.006 570,487.5C 569.196,488.804 568.029,489.471 566.5,489.5C 555.6,486.358 544.6,483.691 533.5,481.5C 533.5,480.167 533.5,478.833 533.5,477.5C 535.92,477.292 538.253,477.626 540.5,478.5C 542.054,476.067 542.72,473.4 542.5,470.5C 539.167,469.833 535.833,469.167 532.5,468.5 Z"/></g>
<g><path style="opacity:1" fill="#e7ecf4" d="M 554.5,447.5 C 558.884,447.174 563.217,447.508 567.5,448.5C 566.022,451.288 564.689,454.122 563.5,457C 559.852,457.062 556.185,456.895 552.5,456.5C 552.7,453.37 553.366,450.37 554.5,447.5 Z"/></g>
<g><path style="opacity:1" fill="#d8e558" d="M 555.5,449.5 C 558.572,449.183 561.572,449.516 564.5,450.5C 562.688,454.817 559.355,456.483 554.5,455.5C 554.833,453.5 555.167,451.5 555.5,449.5 Z"/></g>
<g><path style="opacity:1" fill="#f0f3f5" d="M 572.5,448.5 C 575.898,448.18 579.232,448.513 582.5,449.5C 582.03,453.201 580.697,456.534 578.5,459.5C 575.497,458.915 572.497,458.248 569.5,457.5C 570.705,454.55 571.705,451.55 572.5,448.5 Z"/></g>
<g><path style="opacity:1" fill="#d7e552" d="M 573.5,450.5 C 575.5,450.5 577.5,450.5 579.5,450.5C 579.007,452.806 578.674,455.139 578.5,457.5C 572.718,458.175 571.051,455.841 573.5,450.5 Z"/></g>
<g><path style="opacity:1" fill="#e2e9f0" d="M 549.5,460.5 C 554.032,460.069 558.365,460.569 562.5,462C 561.308,463.912 560.308,465.912 559.5,468C 555.812,468.45 552.146,468.283 548.5,467.5C 548.993,465.194 549.326,462.861 549.5,460.5 Z"/></g>
<g><path style="opacity:1" fill="#d7e451" d="M 551.5,462.5 C 554.247,462.187 556.914,462.52 559.5,463.5C 557.582,466.106 554.916,467.106 551.5,466.5C 551.5,465.167 551.5,463.833 551.5,462.5 Z"/></g>
<g><path style="opacity:1" fill="#e7ecf0" d="M 588.5,449.5 C 594.127,451.588 595.961,455.588 594,461.5C 593.653,463.18 592.653,464.18 591,464.5C 588.38,463.519 585.88,462.353 583.5,461C 585.858,457.452 587.525,453.619 588.5,449.5 Z"/></g>
<g><path style="opacity:1" fill="#d7e553" d="M 589.5,452.5 C 590.75,452.577 591.583,453.244 592,454.5C 592.874,457.379 592.54,460.045 591,462.5C 589.414,461.624 587.914,460.624 586.5,459.5C 587.788,457.261 588.788,454.928 589.5,452.5 Z"/></g>
<g><path style="opacity:1" fill="#ebf2ad" d="M 543.5,462.5 C 543.5,463.5 543.5,464.5 543.5,465.5C 538.833,465.5 534.167,465.5 529.5,465.5C 534.279,465.047 538.946,464.047 543.5,462.5 Z"/></g>
<g><path style="opacity:1" fill="#6189c4" d="M 544.5,466.5 C 540.5,467.167 536.5,467.833 532.5,468.5C 531.244,468.539 530.244,468.039 529.5,467C 534.489,466.501 539.489,466.334 544.5,466.5 Z"/></g>
<g><path style="opacity:1" fill="#e4e9f0" d="M 566.5,462.5 C 570.02,462.805 573.353,463.638 576.5,465C 575.259,467.563 573.926,470.063 572.5,472.5C 569.71,471.803 567.043,470.803 564.5,469.5C 565.577,467.271 566.244,464.937 566.5,462.5 Z"/></g>
<g><path style="opacity:1" fill="#d8e555" d="M 568.5,464.5 C 570.312,464.771 571.978,465.438 573.5,466.5C 572.288,468.923 570.288,469.923 567.5,469.5C 567.629,467.784 567.962,466.117 568.5,464.5 Z"/></g>
<g><path style="opacity:1" fill="#e8edf0" d="M 546.5,472.5 C 549.881,472.46 553.214,472.793 556.5,473.5C 556.007,475.806 555.674,478.139 555.5,480.5C 552.421,480.74 549.421,480.407 546.5,479.5C 545.425,477.189 545.425,474.856 546.5,472.5 Z"/></g>
<g><path style="opacity:1" fill="#eaeeef" d="M 580.5,466.5 C 583.419,467.293 586.085,468.626 588.5,470.5C 587.627,472.413 586.627,474.247 585.5,476C 582.826,475.847 580.16,475.347 577.5,474.5C 577.94,471.62 578.94,468.954 580.5,466.5 Z"/></g>
<g><path style="opacity:1" fill="#d6e44d" d="M 581.5,469.5 C 585.362,469.833 586.195,471.499 584,474.5C 580.98,473.7 580.146,472.033 581.5,469.5 Z"/></g>
<g><path style="opacity:1" fill="#d8e558" d="M 547.5,474.5 C 549.989,474.298 552.323,474.798 554.5,476C 553.033,478.186 551.033,478.852 548.5,478C 547.663,476.989 547.33,475.822 547.5,474.5 Z"/></g>
<g><path style="opacity:1" fill="#e0e7ee" d="M 561.5,474.5 C 564.994,474.614 567.994,475.78 570.5,478C 568.647,485.506 564.98,486.506 559.5,481C 560.096,478.775 560.763,476.608 561.5,474.5 Z"/></g>
<g><path style="opacity:1" fill="#dae65e" d="M 562.5,477.5 C 564.167,477.5 565.833,477.5 567.5,477.5C 567.4,482.622 565.4,483.622 561.5,480.5C 562.127,479.583 562.461,478.583 562.5,477.5 Z"/></g>
<g><path style="opacity:1" fill="#eaf392" d="M 412.5,494.5 C 441.508,494.167 470.508,494.5 499.5,495.5C 485,495.833 470.5,496.167 456,496.5C 441.151,496.499 426.651,495.833 412.5,494.5 Z"/></g>
<g><path style="opacity:1" fill="#f2f9ad" d="M 388.5,499.5 C 417.508,499.167 446.508,499.5 475.5,500.5C 461,500.833 446.5,501.167 432,501.5C 417.151,501.499 402.651,500.833 388.5,499.5 Z"/></g>
<g><path style="opacity:1" fill="#f6f8f7" d="M 826.5,501.5 C 847.436,501.585 868.102,504.085 888.5,509C 893.399,510.449 898.065,512.449 902.5,515C 907.833,519.667 907.833,524.333 902.5,529C 900.634,529.985 898.634,530.485 896.5,530.5C 876.963,528.616 857.63,525.45 838.5,521C 834.167,520.333 829.833,520.333 825.5,521C 824.667,521.833 823.833,522.667 823,523.5C 819.922,532.3 817.588,541.3 816,550.5C 811.339,583.124 807.339,615.79 804,648.5C 818.683,641.132 832.85,632.966 846.5,624C 852.071,623.3 857.238,624.467 862,627.5C 863.293,631.582 862.126,634.749 858.5,637C 842.679,649.418 825.679,660.084 807.5,669C 796.892,673.857 785.892,675.191 774.5,673C 766.422,668.688 762.588,661.855 763,652.5C 746.979,666.162 728.813,675.995 708.5,682C 699.987,684.31 691.654,683.977 683.5,681C 681.383,679.269 679.883,677.102 679,674.5C 678.621,670.231 678.455,666.231 678.5,662.5C 663.73,673.552 647.396,681.385 629.5,686C 602.632,689.738 584.632,678.905 575.5,653.5C 557.251,666.455 537.251,675.955 515.5,682C 495.724,686.855 476.724,684.855 458.5,676C 445.878,667.272 439.044,655.105 438,639.5C 436.059,619.325 441.392,601.325 454,585.5C 476.361,557.929 505.195,547.096 540.5,553C 553.408,555.261 562.908,562.095 569,573.5C 571.078,582.884 569.078,591.217 563,598.5C 555.562,606.141 546.729,611.641 536.5,615C 519.229,620.868 501.896,626.535 484.5,632C 483.154,648.492 490.821,656.992 507.5,657.5C 512.879,656.989 518.212,656.156 523.5,655C 537.098,649.639 550.431,643.806 563.5,637.5C 567.654,638.804 571.487,640.804 575,643.5C 575.93,629.043 580.264,615.71 588,603.5C 605.823,578.325 629.99,562.825 660.5,557C 675.808,555.852 691.141,555.186 706.5,555C 708.377,552.894 710.71,551.561 713.5,551C 717.514,550.61 721.514,550.11 725.5,549.5C 729.805,549.819 731.472,552.153 730.5,556.5C 726.265,575.307 723.099,594.307 721,613.5C 720.333,627.167 720.333,640.833 721,654.5C 732.359,649.572 743.193,643.738 753.5,637C 756.711,636.202 759.711,636.702 762.5,638.5C 765.539,610.447 769.039,582.447 773,554.5C 774.687,546.42 776.687,538.42 779,530.5C 785.046,517.207 795.213,508.707 809.5,505C 815.265,503.614 820.931,502.448 826.5,501.5 Z"/></g>
<g><path style="opacity:1" fill="#f5fbb7" d="M 503.5,504.5 C 503.443,505.609 503.11,506.609 502.5,507.5C 474.492,507.833 446.492,507.5 418.5,506.5C 446.899,505.825 475.233,505.159 503.5,504.5 Z"/></g>
<g><path style="opacity:1" fill="#052f98" d="M 824.5,506.5 C 848.036,505.979 871.036,509.146 893.5,516C 896.979,517.057 899.645,519.057 901.5,522C 900.725,524.768 898.892,525.934 896,525.5C 874.533,522.922 853.199,519.589 832,515.5C 826.029,514.486 821.363,516.486 818,521.5C 814.358,534.688 811.358,548.021 809,561.5C 804.744,591.098 801.411,620.765 799,650.5C 800.864,653.207 803.364,654.041 806.5,653C 820.659,645.757 834.326,637.757 847.5,629C 851.053,628.402 854.386,629.069 857.5,631C 842.362,643.408 826.029,654.075 808.5,663C 799.358,667.695 789.691,669.695 779.5,669C 774.319,668.169 770.819,665.336 769,660.5C 768.646,617.954 773.313,575.954 783,534.5C 786.406,523.427 793.573,515.927 804.5,512C 811.208,509.826 817.875,507.993 824.5,506.5 Z"/></g>
<g><path style="opacity:1" fill="#f7f9f8" d="M 339.5,507.5 C 362.655,506.498 385.321,509.332 407.5,516C 422.06,521.227 431.894,531.06 437,545.5C 438.074,559.189 433.24,570.356 422.5,579C 414.436,585.198 405.436,589.531 395.5,592C 386.808,593.575 378.141,595.241 369.5,597C 387.068,614.565 403.902,632.732 420,651.5C 435.432,667.61 452.598,681.443 471.5,693C 487.723,702.977 505.056,705.977 523.5,702C 525.908,686.255 534.908,679.922 550.5,683C 563.584,686.678 568.084,694.845 564,707.5C 549.21,721.206 531.71,726.706 511.5,724C 481.607,721.218 453.94,711.884 428.5,696C 405.294,681.142 384.127,663.642 365,643.5C 351.871,628.036 338.371,612.869 324.5,598C 322.866,597.506 321.199,597.34 319.5,597.5C 316.168,613.158 312.835,628.824 309.5,644.5C 323.671,647.445 338.005,648.778 352.5,648.5C 352.641,654.717 351.807,660.717 350,666.5C 339.89,665.305 329.723,664.138 319.5,663C 285.632,655.46 251.632,648.626 217.5,642.5C 216.571,637.235 217.904,632.735 221.5,629C 230.853,628.835 240.186,629.335 249.5,630.5C 254.915,631.197 259.749,629.863 264,626.5C 270.764,602.379 276.597,578.045 281.5,553.5C 276.786,553.827 272.12,553.493 267.5,552.5C 266.167,549.167 266.167,545.833 267.5,542.5C 267,542.167 266.5,541.833 266,541.5C 253.753,545.694 241.92,550.861 230.5,557C 223.76,561.07 217.593,565.904 212,571.5C 209.413,576.413 210.247,580.58 214.5,584C 223.748,588.527 233.082,592.86 242.5,597C 246.993,601.263 247.66,606.096 244.5,611.5C 243.975,612.192 243.308,612.692 242.5,613C 224.484,615.217 208.484,610.55 194.5,599C 181.728,587.832 180.228,575.332 190,561.5C 200.13,551.712 211.63,543.878 224.5,538C 261.12,520.917 299.453,510.75 339.5,507.5 Z"/></g>
<g><path style="opacity:1" fill="#e7ece7" d="M 502.5,507.5 C 503.11,506.609 503.443,505.609 503.5,504.5C 503.846,500.641 505.68,497.641 509,495.5C 510.076,475.88 506.409,457.213 498,439.5C 496.542,437.04 494.709,434.873 492.5,433C 491.167,432.333 489.833,432.333 488.5,433C 484.962,439.219 480.462,440.052 475,435.5C 472.387,430.59 473.553,426.756 478.5,424C 489.146,419.11 497.979,421.277 505,430.5C 514.71,449.672 520.21,470.006 521.5,491.5C 534.921,491.675 548.254,492.842 561.5,495C 567.027,496.065 572.36,497.731 577.5,500C 581.674,501.508 582.341,503.841 579.5,507C 559.833,507.333 540.167,507.667 520.5,508C 516.872,508.79 514.872,510.957 514.5,514.5C 536.696,514.122 558.696,514.622 580.5,516C 588.725,520.193 590.558,526.359 586,534.5C 581.357,539.521 575.857,540.687 569.5,538C 565.961,534.613 564.628,530.447 565.5,525.5C 552.833,525.5 540.167,525.5 527.5,525.5C 527.005,537.506 521.005,542.006 509.5,539C 504.217,533.907 503.217,528.074 506.5,521.5C 504.147,517.109 502.813,512.442 502.5,507.5 Z"/></g>
<g><path style="opacity:1" fill="#0b3299" d="M 482.5,423.5 C 491.788,421.754 498.955,424.754 504,432.5C 513.289,451.757 518.455,472.09 519.5,493.5C 533.619,493.343 547.619,494.51 561.5,497C 567.525,498.285 573.192,500.452 578.5,503.5C 560.176,504.333 541.842,504.833 523.5,505C 519.637,506.181 516.137,508.014 513,510.5C 512.505,512.473 512.338,514.473 512.5,516.5C 531.833,516.5 551.167,516.5 570.5,516.5C 570.607,518.903 569.607,520.736 567.5,522C 553.504,522.5 539.504,522.667 525.5,522.5C 526.618,534.223 521.618,539.056 510.5,537C 506.138,532.301 505.471,527.134 508.5,521.5C 506.661,517.149 505.328,512.649 504.5,508C 504.901,502.928 507.068,498.761 511,495.5C 512.659,474.144 508.326,454.144 498,435.5C 492.813,428.677 487.98,428.844 483.5,436C 477.556,437.72 475.056,435.553 476,429.5C 478.063,427.266 480.229,425.266 482.5,423.5 Z"/></g>
<g><path style="opacity:1" fill="#062f98" d="M 334.5,513.5 C 354.691,512.551 374.691,514.051 394.5,518C 407.521,520.424 418.355,526.591 427,536.5C 434.918,551.016 432.418,563.516 419.5,574C 414.113,578.362 408.113,581.695 401.5,584C 386.545,587.398 371.545,590.565 356.5,593.5C 366.787,602.285 376.62,611.619 386,621.5C 403.489,642.322 422.322,661.822 442.5,680C 458.703,693.603 477.036,703.269 497.5,709C 507.79,710.37 517.79,709.37 527.5,706C 530.531,702.012 532.364,697.512 533,692.5C 534.167,691.333 535.333,690.167 536.5,689C 544.414,687.317 551.581,688.817 558,693.5C 561.77,699.046 560.937,703.879 555.5,708C 541.283,717.73 525.616,721.063 508.5,718C 476.303,713.895 446.97,702.561 420.5,684C 401.858,671.035 384.691,656.202 369,639.5C 356.02,624.352 342.853,609.352 329.5,594.5C 324.749,591.171 319.915,590.838 315,593.5C 311.882,608.756 308.382,623.923 304.5,639C 303.574,642.139 303.408,645.306 304,648.5C 317.914,651.992 332.08,653.992 346.5,654.5C 346.5,656.167 346.5,657.833 346.5,659.5C 337.432,659.437 328.432,658.604 319.5,657C 288.241,650.202 256.908,643.869 225.5,638C 222.751,635.577 223.251,634.077 227,633.5C 237.773,635.299 248.606,635.799 259.5,635C 264.188,634.08 267.688,631.58 270,627.5C 276.679,603.95 282.179,580.116 286.5,556C 286.726,553.329 286.059,550.996 284.5,549C 280.637,547.646 276.637,547.146 272.5,547.5C 272.297,545.61 272.963,544.11 274.5,543C 283.521,542.607 292.521,541.94 301.5,541C 309.151,539.004 316.817,537.17 324.5,535.5C 322.204,551.91 319.537,568.243 316.5,584.5C 330.855,585.975 345.188,585.809 359.5,584C 371.545,581.396 381.712,575.562 390,566.5C 396.272,554.27 394.105,543.77 383.5,535C 374.475,528.768 364.475,525.102 353.5,524C 332.938,522.381 312.604,523.714 292.5,528C 267.859,533.655 244.526,542.655 222.5,555C 215.333,559.5 209.5,565.333 205,572.5C 203.437,579.48 205.604,584.98 211.5,589C 220.833,593.333 230.167,597.667 239.5,602C 242.167,604 242.167,606 239.5,608C 219.681,608.954 203.515,601.787 191,586.5C 187.269,578.33 188.602,570.997 195,564.5C 207.949,553.268 222.449,544.435 238.5,538C 269.335,524.792 301.335,516.625 334.5,513.5 Z"/></g>
<g><path style="opacity:1" fill="#14359b" d="M 574.5,517.5 C 582.986,517.151 586.82,521.151 586,529.5C 583.451,536.358 578.617,538.858 571.5,537C 567.797,533.604 566.631,529.437 568,524.5C 569.694,521.642 571.861,519.309 574.5,517.5 Z"/></g>
<g><path style="opacity:1" fill="#d2e061" d="M 515.5,524.5 C 517.484,524.484 518.484,525.484 518.5,527.5C 518.566,529.266 517.732,530.266 516,530.5C 512.897,528.888 512.73,526.888 515.5,524.5 Z"/></g>
<g><path style="opacity:1" fill="#cedb64" d="M 575.5,525.5 C 577.167,525.5 578.833,525.5 580.5,525.5C 580.817,529.172 579.151,530.838 575.5,530.5C 575.5,528.833 575.5,527.167 575.5,525.5 Z"/></g>
<g><path style="opacity:1" fill="#ebf1ac" d="M 331.5,528.5 C 331.5,528.833 331.5,529.167 331.5,529.5C 326.405,529.762 321.405,530.428 316.5,531.5C 315.432,530.566 314.099,530.232 312.5,530.5C 318.605,529.004 324.938,528.337 331.5,528.5 Z"/></g>
<g><path style="opacity:1" fill="#d4e342" d="M 331.5,528.5 C 346.461,527.725 360.794,530.225 374.5,536C 386.85,541.856 390.35,551.023 385,563.5C 376.553,572.66 366.053,577.826 353.5,579C 343.506,579.5 333.506,579.666 323.5,579.5C 326.381,562.879 329.048,546.213 331.5,529.5C 331.5,529.167 331.5,528.833 331.5,528.5 Z"/></g>
<g><path style="opacity:1" fill="#d8e557" d="M 312.5,530.5 C 314.099,530.232 315.432,530.566 316.5,531.5C 306.407,534.728 296.074,536.228 285.5,536C 294.409,533.639 303.409,531.806 312.5,530.5 Z"/></g>
<g><path style="opacity:1" fill="#042f98" d="M 713.5,555.5 C 717.5,555.5 721.5,555.5 725.5,555.5C 721.371,574.681 718.204,594.014 716,613.5C 715.051,628.235 715.384,642.902 717,657.5C 719.737,658.61 722.571,658.777 725.5,658C 735.617,653.442 745.284,648.109 754.5,642C 758.105,641.464 761.105,642.631 763.5,645.5C 746.493,661.007 726.826,671.84 704.5,678C 699.167,678.667 693.833,678.667 688.5,678C 684.916,676.336 683.249,673.503 683.5,669.5C 684.67,662.824 685.504,656.157 686,649.5C 669.858,663.992 651.358,674.492 630.5,681C 606.921,685.3 590.754,676.467 582,654.5C 578.844,635.273 583.178,617.94 595,602.5C 613.934,577.615 639.101,563.782 670.5,561C 681.853,560.232 693.187,560.399 704.5,561.5C 706.299,561.423 707.966,560.923 709.5,560C 710.357,557.981 711.691,556.481 713.5,555.5 Z"/></g>
<g><path style="opacity:1" fill="#042f98" d="M 514.5,556.5 C 529.513,554.722 543.513,557.555 556.5,565C 564.514,571.527 566.681,579.694 563,589.5C 557.346,597.813 549.846,603.98 540.5,608C 519.897,615.201 499.23,622.201 478.5,629C 478.656,655.804 491.989,666.471 518.5,661C 534.364,656.88 549.364,650.714 563.5,642.5C 567.213,644.04 570.547,646.207 573.5,649C 556.167,660.666 537.5,669.666 517.5,676C 499.908,681.261 482.574,680.594 465.5,674C 454.59,668.759 447.757,660.259 445,648.5C 441.248,634.613 441.915,620.947 447,607.5C 460.253,578.06 482.753,561.06 514.5,556.5 Z"/></g>
<g><path style="opacity:1" fill="#f4f7f7" d="M 503.5,568.5 C 515.954,566.367 525.787,570.367 533,580.5C 534.439,588.795 531.606,595.295 524.5,600C 521.672,602.248 518.672,604.248 515.5,606C 503.443,611.519 491.11,616.353 478.5,620.5C 476.031,603.874 480.031,589.041 490.5,576C 494.602,572.954 498.935,570.454 503.5,568.5 Z"/></g>
<g><path style="opacity:1" fill="#d4e344" d="M 504.5,573.5 C 513.806,572.112 521.64,574.778 528,581.5C 528.79,584.634 528.457,587.634 527,590.5C 523.749,594.422 519.916,597.588 515.5,600C 505.179,605.327 494.513,609.827 483.5,613.5C 482.149,599.056 486.816,586.89 497.5,577C 499.925,575.787 502.259,574.621 504.5,573.5 Z"/></g>
<g><path style="opacity:1" fill="#f5f7f7" d="M 655.5,575.5 C 666.846,575.486 678.179,575.819 689.5,576.5C 688.488,591.931 686.654,607.264 684,622.5C 681.313,637.859 673.146,649.359 659.5,657C 646.837,663.626 634.17,663.959 621.5,658C 615.31,651.454 611.81,643.62 611,634.5C 609.376,614.246 616.21,597.412 631.5,584C 638.879,579.043 646.879,576.209 655.5,575.5 Z"/></g>
<g><path style="opacity:1" fill="#d4e342" d="M 653.5,580.5 C 663.833,580.5 674.167,580.5 684.5,580.5C 682.586,594.809 680.753,609.142 679,623.5C 671.476,647.179 655.309,658.345 630.5,657C 621.571,652.346 616.738,644.846 616,634.5C 614.317,614.369 621.484,598.203 637.5,586C 642.758,583.597 648.091,581.764 653.5,580.5 Z"/></g>
</svg>
